<svg width="16" height="16" viewBox="0 0 16 16" fill="none" xmlns="http://www.w3.org/2000/svg">
<path fill-rule="evenodd" clip-rule="evenodd" d="M12.0626 14C13.2316 14 14.125 13.01 14.125 11.8571V5.42857H1.875V11.8571C1.875 13.01 2.76838 14 3.93738 14H12.0626ZM6.25 7.14286C6.13397 7.14286 6.02269 7.18801 5.94064 7.26838C5.85859 7.34876 5.8125 7.45776 5.8125 7.57143C5.8125 7.68509 5.85859 7.7941 5.94064 7.87447C6.02269 7.95485 6.13397 8 6.25 8H9.75C9.86603 8 9.97731 7.95485 10.0594 7.87447C10.1414 7.7941 10.1875 7.68509 10.1875 7.57143C10.1875 7.45776 10.1414 7.34876 10.0594 7.26838C9.97731 7.18801 9.86603 7.14286 9.75 7.14286H6.25ZM1.7 2C1.51435 2 1.3363 2.07224 1.20503 2.20084C1.07375 2.32944 1 2.50385 1 2.68571L1 3.71429C1 3.89615 1.07375 4.07056 1.20503 4.19916C1.3363 4.32776 1.51435 4.4 1.7 4.4H14.3C14.4857 4.4 14.6637 4.32776 14.795 4.19916C14.9262 4.07056 15 3.89615 15 3.71429V2.68571C15 2.50385 14.9262 2.32944 14.795 2.20084C14.6637 2.07224 14.4857 2 14.3 2H1.7Z" fill="#A6A6A6"/>
</svg>
