<svg width="12" height="12" viewBox="0 0 12 12" fill="none" xmlns="http://www.w3.org/2000/svg">
<path d="M10.0195 8.4285C11.2952 7.29 12.0002 6 12.0002 6C12.0002 6 9.75021 1.875 6.00021 1.875C5.27991 1.87748 4.56776 2.02757 3.90771 2.316L4.48521 2.89425C4.97079 2.71737 5.48343 2.62626 6.00021 2.625C7.59021 2.625 8.90946 3.501 9.87621 4.46775C10.3415 4.93552 10.7586 5.44885 11.1212 6C11.0777 6.06525 11.0297 6.13725 10.975 6.216C10.7237 6.576 10.3525 7.056 9.87621 7.53225C9.75246 7.656 9.62347 7.77825 9.48846 7.89675L10.0195 8.4285Z" fill="#B332F0"/>
<path d="M8.47253 6.88202C8.63989 6.4139 8.67089 5.90788 8.5619 5.42284C8.45292 4.93779 8.20844 4.49367 7.85691 4.14214C7.50538 3.79061 7.06126 3.54613 6.57621 3.43714C6.09117 3.32816 5.58515 3.35916 5.11703 3.52652L5.73428 4.14377C6.02251 4.10252 6.31639 4.12896 6.59263 4.22099C6.86887 4.31303 7.11988 4.46814 7.32577 4.67403C7.53166 4.87992 7.68677 5.13093 7.7788 5.40717C7.87084 5.68341 7.89728 5.97729 7.85603 6.26552L8.47253 6.88202ZM6.26528 7.85627L6.88178 8.47277C6.41366 8.64014 5.90764 8.67113 5.42259 8.56215C4.93755 8.45317 4.49342 8.20869 4.14189 7.85716C3.79036 7.50563 3.54588 7.0615 3.4369 6.57646C3.32792 6.09141 3.35891 5.58539 3.52628 5.11727L4.14353 5.73452C4.10227 6.02275 4.12871 6.31663 4.22075 6.59287C4.31279 6.86912 4.4679 7.12012 4.67379 7.32601C4.87967 7.5319 5.13068 7.68701 5.40692 7.77905C5.68316 7.87109 5.97704 7.89753 6.26528 7.85627Z" fill="#B332F0"/>
<path d="M2.5125 4.10253C2.3775 4.22253 2.24775 4.34403 2.124 4.46778C1.65873 4.93555 1.24164 5.44888 0.879 6.00003L1.02525 6.21603C1.2765 6.57603 1.64775 7.05603 2.124 7.53228C3.09075 8.49903 4.41075 9.37503 6 9.37503C6.537 9.37503 7.0425 9.27528 7.515 9.10503L8.0925 9.68403C7.43245 9.97244 6.7203 10.1225 6 10.125C2.25 10.125 0 6.00003 0 6.00003C0 6.00003 0.70425 4.70928 1.98075 3.57153L2.51175 4.10328L2.5125 4.10253Z" fill="#B332F0"/>
<path fill-rule="evenodd" clip-rule="evenodd" d="M10.2344 10.7656L1.23438 1.76562L1.76538 1.23462L10.7654 10.2346L10.2344 10.7656Z" fill="#B332F0"/>
</svg>
