<svg width="24" height="24" viewBox="0 0 24 24" fill="none" xmlns="http://www.w3.org/2000/svg">
<rect width="24" height="24" rx="12" fill="#E6EEFF"/>
<path d="M16.2167 7.625C16.0944 7.25 15.7278 7 15.3611 7H8.63889C8.21111 7 7.90556 7.25 7.78333 7.625L6.5 11.375V16.375C6.5 16.75 6.74444 17 7.11111 17H7.72222C8.08889 17 8.33333 16.75 8.33333 16.375V15.75H15.6667V16.375C15.6667 16.75 15.9111 17 16.2778 17H16.8889C17.2556 17 17.5 16.75 17.5 16.375V11.375L16.2167 7.625ZM8.63889 13.875C8.15 13.875 7.72222 13.4375 7.72222 12.9375C7.72222 12.4375 8.15 12 8.63889 12C9.12778 12 9.55556 12.4375 9.55556 12.9375C9.55556 13.4375 9.12778 13.875 8.63889 13.875ZM15.3611 13.875C14.8722 13.875 14.4444 13.4375 14.4444 12.9375C14.4444 12.4375 14.8722 12 15.3611 12C15.85 12 16.2778 12.4375 16.2778 12.9375C16.2778 13.4375 15.85 13.875 15.3611 13.875ZM7.72222 10.75L8.63889 7.9375H15.3611L16.2778 10.75H7.72222Z" fill="#95B8FF"/>
</svg>
