<svg width="18" height="18" viewBox="0 0 18 18" fill="none" xmlns="http://www.w3.org/2000/svg">
<path d="M15.09 5.0325L12.9675 2.91C12.5459 2.48792 11.974 2.25053 11.3775 2.25H6.6225C6.02596 2.25053 5.45405 2.48792 5.0325 2.91L2.91 5.0325C2.48792 5.45405 2.25053 6.02596 2.25 6.6225V13.5C2.25 14.0967 2.48705 14.669 2.90901 15.091C3.33097 15.5129 3.90326 15.75 4.5 15.75H13.5C14.0967 15.75 14.669 15.5129 15.091 15.091C15.5129 14.669 15.75 14.0967 15.75 13.5V6.6225C15.7495 6.02596 15.5121 5.45405 15.09 5.0325ZM6.09 3.9675C6.23373 3.83045 6.42392 3.75276 6.6225 3.75H11.3775C11.5761 3.75276 11.7663 3.83045 11.91 3.9675L13.1925 5.25H4.8075L6.09 3.9675ZM13.5 14.25H4.5C4.30109 14.25 4.11032 14.171 3.96967 14.0303C3.82902 13.8897 3.75 13.6989 3.75 13.5V6.75H14.25V13.5C14.25 13.6989 14.171 13.8897 14.0303 14.0303C13.8897 14.171 13.6989 14.25 13.5 14.25Z" fill="#E4AD5A"/>
<path d="M11.25 8.25C11.0511 8.25 10.8603 8.32902 10.7197 8.46967C10.579 8.61032 10.5 8.80109 10.5 9C10.5 9.39782 10.342 9.77936 10.0607 10.0607C9.77936 10.342 9.39783 10.5 9 10.5C8.60218 10.5 8.22064 10.342 7.93934 10.0607C7.65804 9.77936 7.5 9.39782 7.5 9C7.5 8.80109 7.42098 8.61032 7.28033 8.46967C7.13968 8.32902 6.94891 8.25 6.75 8.25C6.55109 8.25 6.36032 8.32902 6.21967 8.46967C6.07902 8.61032 6 8.80109 6 9C6 9.79565 6.31607 10.5587 6.87868 11.1213C7.44129 11.6839 8.20435 12 9 12C9.79565 12 10.5587 11.6839 11.1213 11.1213C11.6839 10.5587 12 9.79565 12 9C12 8.80109 11.921 8.61032 11.7803 8.46967C11.6397 8.32902 11.4489 8.25 11.25 8.25Z" fill="#E4AD5A"/>
</svg>
