<svg width="18" height="18" viewBox="0 0 18 18" fill="none" xmlns="http://www.w3.org/2000/svg">
<path d="M14.8531 5.50938L11.4906 2.14688C11.3969 2.05313 11.2703 2 11.1375 2H4.5C4.22344 2 4 2.22344 4 2.5V15.5C4 15.7766 4.22344 16 4.5 16H14.5C14.7766 16 15 15.7766 15 15.5V5.86406C15 5.73125 14.9469 5.60313 14.8531 5.50938ZM13.8469 6.09375H10.9062V3.15313L13.8469 6.09375ZM13.875 14.875H5.125V3.125H9.84375V6.5C9.84375 6.67405 9.91289 6.84097 10.036 6.96404C10.159 7.08711 10.326 7.15625 10.5 7.15625H13.875V14.875ZM9.375 10.6562H6.5C6.43125 10.6562 6.375 10.7125 6.375 10.7812V11.5312C6.375 11.6 6.43125 11.6562 6.5 11.6562H9.375C9.44375 11.6562 9.5 11.6 9.5 11.5312V10.7812C9.5 10.7125 9.44375 10.6562 9.375 10.6562ZM6.375 8.65625V9.40625C6.375 9.475 6.43125 9.53125 6.5 9.53125H12.5C12.5688 9.53125 12.625 9.475 12.625 9.40625V8.65625C12.625 8.5875 12.5688 8.53125 12.5 8.53125H6.5C6.43125 8.53125 6.375 8.5875 6.375 8.65625Z" fill="#5A89E4"/>
</svg>
