<svg width="23" height="22" viewBox="0 0 23 22" fill="none" xmlns="http://www.w3.org/2000/svg">
<path d="M20.3826 5.59617L14.771 2.84617C14.6411 2.78245 14.4978 2.74927 14.3525 2.74927C14.2072 2.74927 14.0639 2.78245 13.934 2.84617L8.74139 5.39176L3.54787 2.84617C3.40525 2.77632 3.24677 2.74337 3.0875 2.75044C2.92822 2.75751 2.77343 2.80437 2.63783 2.88657C2.50224 2.96877 2.39033 3.08359 2.31275 3.22011C2.23516 3.35663 2.19448 3.51032 2.19455 3.66659V15.5833C2.19455 15.9307 2.3947 16.2478 2.71175 16.4037L8.32332 19.1537C8.45326 19.2174 8.59656 19.2506 8.74185 19.2506C8.88715 19.2506 9.03045 19.2174 9.16038 19.1537L14.353 16.6081L19.5465 19.1528C19.6887 19.2233 19.847 19.2567 20.0063 19.2498C20.1655 19.2429 20.3202 19.1959 20.4555 19.1133C20.7314 18.9456 20.8998 18.6513 20.8998 18.3333V6.41659C20.8998 6.06917 20.6996 5.75201 20.3826 5.59617ZM9.67665 6.98309L13.4177 5.14976V15.0168L9.67665 16.8501V6.98309ZM4.06507 5.14976L7.80612 6.98309V16.8501L4.06507 15.0168V5.14976ZM19.0293 16.8501L15.2882 15.0168V5.14976L19.0293 6.98309V16.8501Z" fill="#605E5C"/>
</svg>
