<svg width="12" height="12" viewBox="0 0 12 12" fill="none" xmlns="http://www.w3.org/2000/svg">
<path d="M11.25 6.6825C11.25 6.13344 10.8786 5.6745 10.375 5.53056V4.32219C10.375 1.86781 8.107 0.75 6 0.75C3.893 0.75 1.625 1.86781 1.625 4.32219V5.531C1.12144 5.67494 0.75 6.13387 0.75 6.68294C0.75 7.2985 1.21594 7.80119 1.81269 7.87206C2.30662 9.54988 3.77312 11.25 6 11.25C8.22556 11.25 9.69206 9.55119 10.1873 7.87162C10.7841 7.80075 11.25 7.29806 11.25 6.6825ZM8.67094 8.58256C8.57731 8.51825 8.48194 8.45831 8.38481 8.401L9.31538 7.729C9.20731 8.06413 9.05463 8.39838 8.85644 8.71075L8.67094 8.58256ZM3.14269 8.71031C2.9445 8.39794 2.79181 8.06369 2.68375 7.72856L3.61475 8.401C3.51806 8.45788 3.42225 8.51781 3.32906 8.58213L3.14269 8.71031ZM4.27056 8.08162C4.25525 8.06456 4.243 8.04488 4.22331 8.03088L2.51225 6.79494C2.50787 6.71706 2.5 6.64006 2.5 6.56087V5.03575L2.73538 4.98325C3.58325 4.79469 4.3585 4.34975 4.94912 3.71713C5.80575 4.35719 6.812 4.75706 7.87906 4.87912L9.5 5.06463V6.56087C9.5 6.64006 9.49213 6.71706 9.48775 6.79537L7.77669 8.03131C7.757 8.04531 7.74519 8.065 7.72944 8.0825C6.62169 7.64719 5.37788 7.64719 4.27056 8.08162Z" fill="#F0323C"/>
<path d="M4.03125 6.87499C4.39369 6.87499 4.6875 6.58118 4.6875 6.21875C4.6875 5.85631 4.39369 5.5625 4.03125 5.5625C3.66881 5.5625 3.375 5.85631 3.375 6.21875C3.375 6.58118 3.66881 6.87499 4.03125 6.87499Z" fill="#F0323C"/>
<path d="M7.96875 6.87499C8.33119 6.87499 8.625 6.58118 8.625 6.21875C8.625 5.85631 8.33119 5.5625 7.96875 5.5625C7.60631 5.5625 7.3125 5.85631 7.3125 6.21875C7.3125 6.58118 7.60631 6.87499 7.96875 6.87499Z" fill="#F0323C"/>
</svg>
