<svg width="18" height="18" viewBox="0 0 18 18" fill="none" xmlns="http://www.w3.org/2000/svg">
<path d="M14.25 1.5V3H12.75V5.25C13.3467 5.25 13.919 5.48705 14.341 5.90901C14.7629 6.33097 15 6.90326 15 7.5V15.75C15 15.9489 14.921 16.1397 14.7803 16.2803C14.6397 16.421 14.4489 16.5 14.25 16.5H3.75C3.55109 16.5 3.36032 16.421 3.21967 16.2803C3.07902 16.1397 3 15.9489 3 15.75V7.5C3 6.90326 3.23705 6.33097 3.65901 5.90901C4.08097 5.48705 4.65326 5.25 5.25 5.25V3H3.75V1.5H14.25ZM12.75 6.75H5.25C5.05109 6.75 4.86032 6.82902 4.71967 6.96967C4.57902 7.11032 4.5 7.30109 4.5 7.5V15H13.5V7.5C13.5 7.30109 13.421 7.11032 13.2803 6.96967C13.1397 6.82902 12.9489 6.75 12.75 6.75ZM9.75 8.25V9.75H11.25V11.25H9.74925L9.75 12.75H8.25L8.24925 11.25H6.75V9.75H8.25V8.25H9.75ZM11.25 3H6.75V5.25H11.25V3Z" fill="#5AE4DC"/>
</svg>
