<svg width="24" height="24" viewBox="0 0 24 24" fill="none" xmlns="http://www.w3.org/2000/svg">
<rect width="24" height="24" rx="12" fill="#E8E6FF"/>
<g clip-path="url(#clip0)">
<path fill-rule="evenodd" clip-rule="evenodd" d="M11.875 6.8125C10.7976 6.8125 9.76425 7.24051 9.00238 8.00238C8.24051 8.76425 7.8125 9.79756 7.8125 10.875V14.5312H7V10.875C7 10.2348 7.1261 9.60088 7.37109 9.00942C7.61608 8.41796 7.97517 7.88054 8.42785 7.42785C8.88054 6.97517 9.41796 6.61608 10.0094 6.37109C10.6009 6.1261 11.2348 6 11.875 6C12.5152 6 13.1491 6.1261 13.7406 6.37109C14.332 6.61608 14.8695 6.97517 15.3221 7.42785C15.7748 7.88054 16.1339 8.41796 16.3789 9.00942C16.6239 9.60088 16.75 10.2348 16.75 10.875V14.5312H15.9375V10.875C15.9375 10.3415 15.8324 9.81323 15.6283 9.32035C15.4241 8.82746 15.1249 8.37962 14.7476 8.00238C14.3704 7.62514 13.9225 7.3259 13.4297 7.12174C12.9368 6.91758 12.4085 6.8125 11.875 6.8125Z" fill="#A495FF"/>
<path d="M14.3125 12.5C14.3125 12.2845 14.3981 12.0778 14.5505 11.9255C14.7028 11.7731 14.9095 11.6875 15.125 11.6875H16.75V14.9375C16.75 15.153 16.6644 15.3597 16.512 15.512C16.3597 15.6644 16.153 15.75 15.9375 15.75H15.125C14.9095 15.75 14.7028 15.6644 14.5505 15.512C14.3981 15.3597 14.3125 15.153 14.3125 14.9375V12.5ZM9.4375 12.5C9.4375 12.2845 9.3519 12.0778 9.19952 11.9255C9.04715 11.7731 8.84049 11.6875 8.625 11.6875H7V14.9375C7 15.153 7.0856 15.3597 7.23798 15.512C7.39035 15.6644 7.59701 15.75 7.8125 15.75H8.625C8.84049 15.75 9.04715 15.6644 9.19952 15.512C9.3519 15.3597 9.4375 15.153 9.4375 14.9375V12.5Z" fill="#A495FF"/>
<path fill-rule="evenodd" clip-rule="evenodd" d="M16.3438 12.9062C16.4515 12.9062 16.5548 12.9491 16.631 13.0252C16.7072 13.1014 16.75 13.2048 16.75 13.3125V15.75C16.75 16.2887 16.536 16.8054 16.1551 17.1863C15.7741 17.5672 15.2575 17.7812 14.7188 17.7812H11.875C11.7673 17.7812 11.6639 17.7384 11.5877 17.6623C11.5116 17.5861 11.4688 17.4827 11.4688 17.375C11.4688 17.2673 11.5116 17.1639 11.5877 17.0877C11.6639 17.0116 11.7673 16.9688 11.875 16.9688H14.7188C15.042 16.9688 15.352 16.8403 15.5805 16.6118C15.8091 16.3832 15.9375 16.0732 15.9375 15.75V13.3125C15.9375 13.2048 15.9803 13.1014 16.0565 13.0252C16.1327 12.9491 16.236 12.9062 16.3438 12.9062Z" fill="#A495FF"/>
<path d="M10.6562 17.375C10.6562 17.1595 10.7419 16.9528 10.8942 16.8005C11.0466 16.6481 11.2533 16.5625 11.4688 16.5625H12.2812C12.4967 16.5625 12.7034 16.6481 12.8558 16.8005C13.0081 16.9528 13.0938 17.1595 13.0938 17.375C13.0938 17.5905 13.0081 17.7972 12.8558 17.9495C12.7034 18.1019 12.4967 18.1875 12.2812 18.1875H11.4688C11.2533 18.1875 11.0466 18.1019 10.8942 17.9495C10.7419 17.7972 10.6562 17.5905 10.6562 17.375Z" fill="#A495FF"/>
</g>
<defs>
<clipPath id="clip0">
<rect width="12" height="12" fill="white" transform="translate(6 6)"/>
</clipPath>
</defs>
</svg>
