<svg width="24" height="24" viewBox="0 0 24 24" fill="none" xmlns="http://www.w3.org/2000/svg">
<rect width="24" height="24" rx="12" fill="#FFE6E6"/>
<g clip-path="url(#clip0)">
<path d="M17.9958 9.56624C17.9948 9.5229 17.989 9.4798 17.9784 9.43777C17.9742 9.42277 17.9658 9.40836 17.9604 9.39335C17.9478 9.35913 17.9364 9.32552 17.9184 9.2943C17.9088 9.27809 17.8956 9.26488 17.8842 9.24928C17.865 9.22226 17.8464 9.19465 17.823 9.17124C17.8092 9.15803 17.7912 9.14722 17.7762 9.13462C17.7528 9.11541 17.7312 9.0944 17.7042 9.07819C17.7018 9.07639 17.6988 9.07639 17.6958 9.07459L17.691 9.07099L12.3036 6.07546C12.2146 6.02607 12.1145 6.00011 12.0127 6C11.9109 5.9999 11.8107 6.02565 11.7216 6.07486L6.309 9.07039C6.3072 9.07219 6.3054 9.07459 6.3024 9.07639L6.2964 9.07879C6.2754 9.0908 6.2598 9.10821 6.24 9.12261C6.2184 9.13882 6.1956 9.15323 6.1764 9.17184C6.1584 9.19045 6.1446 9.21206 6.129 9.23307C6.1128 9.25408 6.0948 9.27269 6.0816 9.2955C6.066 9.32131 6.0576 9.35073 6.0462 9.37894C6.0378 9.39875 6.027 9.41736 6.0216 9.43897C6.01124 9.48024 6.0054 9.52251 6.0042 9.56504C6.0036 9.57524 6 9.58425 6 9.59505V14.3987C6 14.6166 6.1182 14.8177 6.309 14.9234L11.6958 17.9171L11.6964 17.9177L11.6976 17.9183L11.7096 17.9249C11.7354 17.9393 11.7636 17.9471 11.7906 17.9573C11.8098 17.9651 11.8284 17.9753 11.8488 17.9807C11.9484 18.0064 12.0528 18.0064 12.1524 17.9807C12.1722 17.9753 12.1908 17.9651 12.2106 17.9573C12.2376 17.9471 12.2658 17.9399 12.2916 17.9249L12.3036 17.9183L12.3048 17.9177L12.3054 17.9171L17.6922 14.9234C17.8818 14.8177 18 14.6166 18 14.3987V9.59505C18 9.58485 17.9964 9.57644 17.9958 9.56624ZM11.9832 11.9206L7.8348 9.59926L9.492 8.68199L13.5924 11.0262L11.9832 11.9206ZM12.012 7.28688L16.1646 9.59625L14.8182 10.3448L10.7202 8.00184L12.012 7.28688ZM7.2 10.6198L11.4 12.9706V16.3803L7.2 14.0451V10.6198ZM12.6 16.3803L12.6012 12.9712L14.4 11.9639V13.7984L15.6 13.1981V11.2921L16.8 10.6204V14.0451L12.6 16.3803Z" fill="#FF9595"/>
</g>
<defs>
<clipPath id="clip0">
<rect width="12" height="12" fill="white" transform="translate(6 6)"/>
</clipPath>
</defs>
</svg>
