<svg width="12" height="12" viewBox="0 0 12 12" fill="none" xmlns="http://www.w3.org/2000/svg">
<path d="M5.53162 2.81944C6.13767 2.81944 6.63005 2.35618 6.63005 1.78473C6.63005 1.21311 6.13767 0.75 5.53162 0.75C4.92486 0.75 4.43289 1.21311 4.43289 1.78473C4.43289 2.35618 4.92486 2.81944 5.53162 2.81944Z" fill="#0080FF"/>
<path d="M7.22909 8.68277C6.93719 9.63746 6.00283 10.3386 4.89656 10.3386C3.5569 10.3386 2.46744 9.31233 2.46744 8.05082C2.46744 7.11699 3.06552 6.31325 3.91904 5.95809V4.9882C2.52128 5.38477 1.5 6.60697 1.5 8.05082C1.5 9.81476 3.02367 11.25 4.89654 11.25C6.2614 11.25 7.43782 10.4859 7.97723 9.38959L7.59373 8.67984C7.48608 8.68068 7.36137 8.68174 7.22909 8.68277Z" fill="#0080FF"/>
<path d="M10.4294 9.91101L8.95807 7.18616C8.84824 6.98228 8.62624 6.85395 8.3834 6.85395H6.49888V6.44916H8.12077C8.28273 6.44916 8.41886 6.36943 8.50679 6.25456C8.56393 6.17974 8.60458 6.09281 8.60458 5.99341C8.60458 5.74181 8.38822 5.53773 8.12077 5.53773H6.49888V4.16481C6.49888 3.78721 6.20165 3.2534 5.53164 3.2534C4.99728 3.2534 4.56408 3.66151 4.56408 4.16481V7.13936C4.56408 7.65282 5.00598 8.06906 5.5511 8.06906H7.98793L9.27997 10.4619C9.3935 10.6727 9.62008 10.7943 9.85523 10.7943C9.95379 10.7943 10.0537 10.7731 10.1471 10.728C10.4651 10.5761 10.5914 10.2101 10.4294 9.91101Z" fill="#0080FF"/>
</svg>
