<svg width="19" height="17" viewBox="0 0 19 17" fill="none" xmlns="http://www.w3.org/2000/svg">
<path d="M17.7661 3.34189L12.5161 0.716891C12.3946 0.656061 12.2605 0.62439 12.1246 0.62439C11.9886 0.62439 11.8546 0.656061 11.733 0.716891L6.875 3.14677L2.01613 0.716891C1.88269 0.650214 1.73443 0.618755 1.58541 0.625504C1.4364 0.632253 1.29158 0.676985 1.16472 0.755451C1.03786 0.833917 0.933167 0.943512 0.860582 1.07383C0.787996 1.20414 0.749931 1.35085 0.75 1.50002V12.875C0.75 13.2066 0.93725 13.5094 1.23388 13.6581L6.48388 16.2831C6.60544 16.344 6.7395 16.3756 6.87544 16.3756C7.01137 16.3756 7.14544 16.344 7.267 16.2831L12.125 13.8533L16.9839 16.2823C17.1169 16.3496 17.2651 16.3815 17.4141 16.3749C17.563 16.3683 17.7078 16.3234 17.8344 16.2446C18.0925 16.0845 18.25 15.8036 18.25 15.5V4.12502C18.25 3.79339 18.0627 3.49064 17.7661 3.34189ZM7.75 4.66577L11.25 2.91577V12.3343L7.75 14.0843V4.66577ZM2.5 2.91577L6 4.66577V14.0843L2.5 12.3343V2.91577ZM16.5 14.0843L13 12.3343V2.91577L16.5 4.66577V14.0843Z" fill="#999999"/>
</svg>
