<svg width="24" height="24" viewBox="0 0 24 24" fill="none" xmlns="http://www.w3.org/2000/svg">
<rect width="24" height="24" rx="12" fill="#FFF8E6"/>
<g clip-path="url(#clip0)">
<path fill-rule="evenodd" clip-rule="evenodd" d="M12 6C13.7812 6 14.6838 7.03228 14.6838 8.30567V9.61571H15.61C16.009 9.61571 16.2086 9.61571 16.361 9.70138C16.495 9.77674 16.604 9.89699 16.6723 10.0449C16.75 10.213 16.75 10.4331 16.75 10.8733V14.6463C16.75 15.8202 16.75 16.4071 16.5429 16.8555C16.3608 17.2499 16.0701 17.5706 15.7126 17.7715C15.3061 18 13.5866 18 12.5225 18H11.4775C10.4134 18 8.69385 18 8.28742 17.7715C7.92991 17.5706 7.63925 17.2499 7.45709 16.8555C7.25 16.4071 7.25 15.8202 7.25 14.6463V10.8733C7.25 10.4331 7.25 10.213 7.32766 10.0449C7.39597 9.89699 7.50497 9.77674 7.63903 9.70138C7.79144 9.61571 7.99096 9.61571 8.39 9.61571H9.31625V8.30567C9.31625 7.03228 10.1713 6 12 6ZM13.8288 9.61571V8.30567C13.8288 7.55321 13.7805 6.88648 12 6.94323C10.2188 7 10.1713 7.55321 10.1713 8.30567V9.61571H13.8288ZM10.2188 10.9258C10.2188 11.2152 10.0061 11.4498 9.74375 11.4498C9.48141 11.4498 9.26875 11.2152 9.26875 10.9258C9.26875 10.6363 9.48141 10.4017 9.74375 10.4017C10.0061 10.4017 10.2188 10.6363 10.2188 10.9258ZM14.2562 11.4498C14.5186 11.4498 14.7313 11.2152 14.7313 10.9258C14.7313 10.6363 14.5186 10.4017 14.2562 10.4017C13.9939 10.4017 13.7812 10.6363 13.7812 10.9258C13.7812 11.2152 13.9939 11.4498 14.2562 11.4498Z" fill="#FFD495"/>
</g>
<defs>
<clipPath id="clip0">
<rect width="12" height="12" fill="white" transform="translate(6 6)"/>
</clipPath>
</defs>
</svg>
