<svg width="10" height="12" viewBox="0 0 10 12" fill="none" xmlns="http://www.w3.org/2000/svg">
<path fill-rule="evenodd" clip-rule="evenodd" d="M5 0C6.78125 0 7.68375 1.03228 7.68375 2.30567V3.61571H8.61C9.00904 3.61571 9.20856 3.61571 9.36097 3.70138C9.49503 3.77674 9.60403 3.89699 9.67234 4.04489C9.75 4.21303 9.75 4.43313 9.75 4.87335V8.64626C9.75 9.82017 9.75 10.4071 9.54291 10.8555C9.36075 11.2499 9.07009 11.5706 8.71258 11.7715C8.30615 12 6.5866 12 5.5225 12H4.4775C3.4134 12 1.69385 12 1.28742 11.7715C0.92991 11.5706 0.639247 11.2499 0.457088 10.8555C0.25 10.4071 0.25 9.82017 0.25 8.64626V4.87335C0.25 4.43313 0.25 4.21303 0.327658 4.04489C0.395968 3.89699 0.504966 3.77674 0.639032 3.70138C0.791444 3.61571 0.990963 3.61571 1.39 3.61571H2.31625V2.30567C2.31625 1.03228 3.17125 0 5 0ZM6.82875 3.61571V2.30567C6.82875 1.55321 6.78053 0.886483 5 0.943229C3.21875 0.999997 3.17125 1.55321 3.17125 2.30567V3.61571H6.82875ZM3.21875 4.92575C3.21875 5.21516 3.00609 5.44977 2.74375 5.44977C2.48141 5.44977 2.26875 5.21516 2.26875 4.92575C2.26875 4.63634 2.48141 4.40173 2.74375 4.40173C3.00609 4.40173 3.21875 4.63634 3.21875 4.92575ZM7.25625 5.44977C7.51859 5.44977 7.73125 5.21516 7.73125 4.92575C7.73125 4.63634 7.51859 4.40173 7.25625 4.40173C6.99391 4.40173 6.78125 4.63634 6.78125 4.92575C6.78125 5.21516 6.99391 5.44977 7.25625 5.44977Z" fill="#FFD495"/>
</svg>
