<svg width="12" height="12" viewBox="0 0 12 12" fill="none" xmlns="http://www.w3.org/2000/svg">
<path d="M10.2167 1.625C10.0944 1.25 9.72778 1 9.36111 1H2.63889C2.21111 1 1.90556 1.25 1.78333 1.625L0.5 5.37499V10.375C0.5 10.75 0.744444 11 1.11111 11H1.72222C2.08889 11 2.33333 10.75 2.33333 10.375V9.74997H9.66667V10.375C9.66667 10.75 9.91111 11 10.2778 11H10.8889C11.2556 11 11.5 10.75 11.5 10.375V5.37499L10.2167 1.625ZM2.63889 7.87498C2.15 7.87498 1.72222 7.43748 1.72222 6.93748C1.72222 6.43748 2.15 5.99999 2.63889 5.99999C3.12778 5.99999 3.55556 6.43748 3.55556 6.93748C3.55556 7.43748 3.12778 7.87498 2.63889 7.87498ZM9.36111 7.87498C8.87222 7.87498 8.44444 7.43748 8.44444 6.93748C8.44444 6.43748 8.87222 5.99999 9.36111 5.99999C9.85 5.99999 10.2778 6.43748 10.2778 6.93748C10.2778 7.43748 9.85 7.87498 9.36111 7.87498ZM1.72222 4.74999L2.63889 1.9375H9.36111L10.2778 4.74999H1.72222Z" fill="#95B8FF"/>
</svg>
