<svg enable-background="new 0 0 128 128" height="128px" id="Layer_1" version="1.1" viewBox="0 0 128 128" width="128px" xml:space="preserve" xmlns="http://www.w3.org/2000/svg"><path d="M128,112c0,8.8-7.2,16-16,16H16c-8.8,0-16-7.2-16-16V16C0,7.2,7.2,0,16,0h96c8.8,0,16,7.2,16,16V112z" fill="#3C579E"/><path d="M68.877,128V78.188h-17.78V60.425h17.784V44.029c0-16.537,9.764-26.279,24.514-26.279  c7.068,0,12.834,0.756,14.605,0.991v18.573l-11.874-0.005c-8.022,0-9.523,3.979-9.523,9.572v13.544h20.556l-2.904,17.763H86.603V128  H68.877z" fill="#FFFFFF"/></svg>
