<svg width="98" height="120" fill="none" xmlns="http://www.w3.org/2000/svg"><path d="M43.22 47.149c.616-1.432 2.13-3.398 4.147-3.486 1.23-.053 2.197.613 3.185 1.454l3.495-2.04.337.525-3.113 2.15a15.36 15.36 0 014.079 6.345c.22-1.278 1.02-4.847 4.133-6.953.782-.529 2.924-1.987 4.766-1.212a3.693 3.693 0 011.77 1.842l5.593-4.023-.633-1.04-5.315 2.335-.162-.383 6.434-4.847-.778-1.243-14.631 8.187c2.924-2.78 6.222-4.944 9.456-7.182 3.082-2.133 7.12-3.63 6.186-9.2L50.71 40.855l-.292-.471L74.676 24.08l-.688-1.093-3.63 1.247 1.798-5.252-11.06 4.688-.333-.489 4.277-4.675-2.3-1.965-3.796 1.41 2.363-3.852-5.76.78-.74-1.991-1.95-1.432-2.606 3.64.899-2.799-4.349 1.684-.39-.688 4.99-3.966-.638-1.066-7.951 3.635V7.346l-3.778.88 1.76-2.498-.332-.88-8.715 2.061 5.32-4.578-.23-1.23-8.342.543L29.236 0c-3.818.93-8.005.03-10.993 4.34l3.913-1.374.306 1.238-9.281 1.912 1.877-3.384-.683-.419-5.39 3.125-1.797-3.142c-.369 1.798-.256 2.965-.795 3.525-.818.82-2.844 1.886-3.055 1.661C1.218 5.208.813 7.434 0 8.121l3.055 2.225h7.51l-2.03 5.416c2.848 3.053 5.508 0 8.702-.401l-6.366 4.406 1.186 1.384h5.634l-2.112 2.877 2.413 1.503-3.266 3.494 4.142-.34.328 5.02 2.637-.498-2.094 4.05 6.626-.922-4.743 3.926 4.137-.44.243 2.582 4.128-1.423c-1.114.934-1.433 1.322-1.85 1.529-3.9 1.82.66 4.054-.324 6.001 1.379-.08 2.978.256 4.097-.313 3.715-1.881 7.273-4.067 10.862-6.169 4.398-2.582 8.77-5.208 13.15-7.817-5.154 4.244-10.751 7.8-16.214 11.54-3.427 2.345-8.086 3.821-7.461 9.942l10.332-6.033a6.132 6.132 0 01.499-2.511z" fill="#fff"/><path d="M35.107 56.909l.935 1.401 7.79-4.406a13.163 13.163 0 01-.863-2.424l-7.862 5.429zM44.326 54.913l-4.241 3.146.642 1.018 4.695-2.283a17.659 17.659 0 01-.975-1.639l-.121-.242zM67.025 51.273c-.17 1.64-.925 3.772-2.246 6.209l17.911-11.59-8.162.64.898-3.384c-1.348.268-2.794.286-3.962.88a73.269 73.269 0 00-4.996 2.742c.516 1.444.706 2.98.557 4.503zM42.65 72.424c5.328-1.26 9.816-4.186 14.452-6.79a31.426 31.426 0 01-4.043-1.926c-3.693 2.622-7.484 5.103-10.409 8.716zM45.898 57.5L38.8 62.57l.09 1.102 3.81.881-1.775 2.864.63.732c3.027-1.42 6.113-2.724 9.06-4.283.45-.247.93-.511 1.393-.771a21.984 21.984 0 01-6.11-5.597z" fill="#fff"/><path d="M98 83.973l-.18-.696-1.932-.137 1.928-2.159-.414-.542-5.84 2.578 3.27-4.935-7.569 1.123 7.489-8.813-2.52-.96.287-3.129c-1.77-.286-4.2-.564-4.191-.696.265-4.3-3.536-3.728-6.173-5.001l2.516-4.988c-8.293-.882-12.897 6.411-20.251 8.46 6.666-5.728 14.995-8.619 20.31-15.158l-.827-1.23-19.879 11.356-.053-.093a48.174 48.174 0 01-3.338 4.847c.691-.334 1.392-.66 2.102-.956-1.099.843-2.209 1.669-3.329 2.477-.251.304-.507.603-.768.912l-.337-.12c-3.338 2.38-6.738 4.65-10.108 6.959-5.287 3.626-5.39 4.256-2.246 8.852l-5.36 11.593.8.551 5.068-2.146.153.392-7.525 5.509.656 1.11 9.654-3.305-7.215 5.728 3.423.34-4.631 3.52 2.156 3.31 11.963-6.817c-3.445 3.239-7.264 5.905-10.84 8.852-1.024.846-1.985 2.539-1.887 3.75.158 1.882 1.258 3.684 2.017 5.685l6.168-3.526-.898 3.385c5.027-1.6 2.664-6.02 4.87-8.315l-.688-.595-8.84 5.111c-.333-.744-.764-1.502-.688-1.555 5.045-3.472 10.135-6.887 15.422-10.443l-3.212-.564-.741-.992c8.76-.304 9.676-7.49 12.87-12.823l-6.796 3.526-.23-.498 5.19-4.08-.504-.882-6.896 3.217c1.141-3.217 7.435-2.644 4.852-8.086 1.972-.96 3.886-2.402 5.984-2.732 1.41-.225 3.077 1.124 4.438 1.688l-3.45 2.925.62.723 13.702-7.526.835.828-7.722 6.01c4.092.41 7.3 1.292 6.487-2.643l4.762.322-3.374 4.437L98 83.973z" fill="#fff"/></svg>
