<svg width="229" height="120" viewBox="0 0 229 120" fill="none" xmlns="http://www.w3.org/2000/svg">
<path d="M126.834 4.84409C127.652 3.88658 128.47 3.21278 129.891 3.21278C134.584 3.35463 135.188 7.14921 135.188 12.3623C135.188 14.2064 135.117 16.1924 135.117 18.2492C135.117 19.8096 135.046 21.0863 134.761 23.7815C134.264 28.1435 131.811 31.6544 127.936 31.6544C127.403 31.6544 126.301 31.5835 125.804 31.087C125.057 30.5196 123.884 29.2783 123.137 28.179C122.071 26.7604 122 26.2994 122 20.1997V16.547C122 8.53228 122.178 6.43995 123.813 4.84409C124.204 4.454 124.702 4.24122 125.306 4.24122C125.91 4.24122 126.408 4.454 126.834 4.84409ZM129.429 26.3703C130.425 24.6681 130.816 20.448 130.851 18.8876C130.851 15.6959 130.851 10.3054 130.14 7.92941C127.51 8.95784 127.225 13.7454 127.225 18.6393V19.9515C127.225 22.5758 127.261 23.8524 127.652 24.7036C128.15 25.7675 129.429 26.3349 129.429 26.3703Z" fill="white"/>
<path d="M152.986 21.0154H152.489C152.524 21.0154 150.64 6.08531 150.64 6.04985C150.64 3.95751 149.787 3.07093 148.436 3.07093C147.619 3.07093 146.979 3.42556 146.552 4.17029C146.268 4.09936 146.019 4.0639 145.77 4.0639C144.597 4.0639 143.851 4.80863 143.637 5.73068C142.109 8.74506 138.732 24.3844 138.732 28.1435C138.732 28.4627 138.768 28.6755 138.803 28.8173C139.052 29.633 139.301 30.4132 139.976 30.4132C140.225 30.4132 140.58 30.2713 141.043 29.9521C141.291 30.0585 141.576 30.094 141.825 30.094C142.998 30.094 143.389 29.2783 143.637 28.1435C143.709 27.8243 143.993 26.7959 144.313 25.3774H148.259V26.2285C148.259 27.9662 149.254 29.5621 150.747 29.5621C152.026 29.5621 152.951 28.5336 152.951 27.3633C152.951 27.1151 152.915 26.8668 152.809 26.6186L152.631 26.193V25.3774H152.986C154.159 25.3774 155.19 24.3489 155.19 23.1786C155.19 22.0084 154.159 21.0154 152.986 21.0154ZM145.344 21.0154C146.09 17.7528 146.837 14.5256 146.908 14.0646L147.334 13.7809C147.654 15.554 147.939 18.8521 148.116 21.0154H145.344Z" fill="white"/>
<path d="M172.447 20.3416L172.874 20.1997C172.874 23.5687 172.909 29.172 172.909 28.9592L172.945 29.9876C172.98 31.1224 173.976 32.0799 175.149 32.0799C176.393 32.0799 177.353 31.0515 177.317 29.8458C177.317 28.9592 176.891 25.4128 176.891 25.1646V22.4339V17.6464C176.891 11.8304 176.82 7.36199 176.18 5.83707C175.469 5.19873 174.367 4.48946 173.265 4.48946C172.625 4.48946 172.092 4.98595 171.914 5.94346C171.416 7.89394 171.843 6.1917 170.634 11.9368C170.457 13.178 170.066 14.4901 169.248 17.0435C166.795 8.74506 165.622 6.15624 163.632 6.15624C163.454 6.15624 163.312 6.15624 163.134 6.1917V5.908C163.134 4.7377 162.174 3.74473 160.966 3.74473C159.757 3.74473 158.762 4.70224 158.762 5.908V12.8943C158.762 16.1214 159.224 24.3844 159.864 26.264C159.864 27.7889 160.895 30.8387 162.814 30.8387C164.165 30.8387 166.084 29.9167 166.084 28.3208C166.084 27.8243 165.907 27.3279 165.587 26.9023L165.196 25.1646C164.591 22.3985 163.987 20.1997 163.703 17.7173L164.165 17.6464C164.52 18.8876 165.231 20.6607 166.369 23.6042C166.831 24.7745 168.039 25.5192 169.106 25.5192C170.99 25.5192 171.381 23.8879 172.447 20.3416Z" fill="white"/>
<path d="M186.349 4.59585C186.597 4.59585 186.74 4.17029 187.77 4.17029C188.019 4.17029 188.233 4.20575 188.872 4.34761C191.112 4.87956 192.783 5.16326 193.707 5.48243C194.595 5.8016 195.2 6.65272 195.2 7.57477C195.2 8.88692 194.133 9.73804 193.031 9.73804C193.067 9.73804 189.05 8.78053 189.05 8.81599C188.943 9.91535 188.695 13.4972 188.588 15.1639H190.01C191.183 15.1639 192.178 16.1924 192.178 17.3627C192.178 18.5329 191.183 19.5259 190.01 19.5259H188.339C188.304 20.8381 188.268 21.6892 188.268 22.7885C188.268 23.5687 188.304 24.4553 188.304 25.732C188.979 25.8739 189.263 25.9093 190.294 25.9093C190.508 25.8029 190.756 25.6965 191.218 25.6965C192.356 25.6965 193.458 26.5122 193.458 27.8598C193.458 29.4911 191.894 30.2713 190.152 30.2713C187.379 30.2713 186.029 29.8812 184.678 28.179C184.287 28.5691 183.718 28.8173 183.149 28.8173C181.692 28.8173 180.874 27.647 180.874 25.7675V18.994C180.874 13.3908 181.088 11.9368 182.545 6.65272C182.616 6.47541 182.652 6.29809 182.687 6.01438C182.794 4.91502 183.754 4.02844 184.856 4.02844C185.424 4.02844 185.922 4.24122 186.349 4.59585Z" fill="white"/>
<path d="M210.482 18.0365L210.944 17.9655C211.051 12.0786 211.229 8.28404 211.478 6.72365C211.442 6.1917 211.513 5.76614 211.762 4.98595C212.082 4.0639 212.935 3.42556 213.895 3.42556C215.139 3.42556 216.028 4.52492 216.028 5.69521C215.53 9.52526 215.317 13.4262 215.317 18.9585C215.317 21.6183 215.21 25.5192 215.103 26.9378C214.926 29.1365 213.788 30.8387 211.869 30.8387C211.513 30.8387 211.229 30.6969 210.909 30.4132C210.411 29.9521 210.056 29.0301 210.02 28.3208V28.2854C209.594 27.4342 209.238 26.6186 208.705 24.8809C208.456 24.0298 207.745 22.824 207.568 22.0793L205.79 17.6109L205.328 17.8591C205.328 19.5614 205.932 25.732 205.932 27.7534C205.932 29.3138 205.008 30.2359 203.764 30.2359C203.266 30.2359 202.804 30.094 202.413 29.7748C202.129 29.9167 201.844 29.9876 201.525 29.9876C200.849 29.9876 199.818 29.3847 199.818 28.2144V27.5761C198.787 25.8384 198.752 24.9873 198.752 22.6822C198.752 11.2984 199.889 9.34794 199.889 6.72365C199.889 6.8655 199.783 5.97892 199.783 5.65975C199.783 4.454 200.743 3.35463 201.951 3.35463C203.337 3.35463 204.759 4.48946 204.759 6.1917C204.901 6.15624 205.044 6.15624 205.186 6.15624C206.963 6.15624 207.496 8.49682 209.096 13.6745C209.558 15.1639 210.02 17.1853 210.482 18.0365Z" fill="white"/>
<path d="M221.215 8.74506C220.255 8.46136 219.58 7.61024 219.58 6.61726C219.58 5.44697 220.611 4.13483 222.139 3.95751C222.53 3.63834 222.957 3.49649 223.419 3.49649C223.632 3.49649 223.988 3.56741 224.521 3.56741C224.805 3.56741 225.09 3.56741 225.445 3.49649C225.836 3.17732 226.298 3 226.796 3C227.969 3 229 4.02844 229 5.19873C229 5.76614 228.502 19.3131 228.431 20.3416C228.325 21.7956 228.325 22.8595 228.325 26.193C228.325 26.6541 228.182 27.1151 227.898 27.5052C227.969 27.7534 228.111 28.0017 228.111 28.4627C228.111 29.4202 227.471 30.2004 226.512 30.5905C225.588 30.9806 223.277 31.3707 222.957 31.3707C220.824 31.3707 219.722 30.8387 219.722 29.2783C219.722 28.2854 220.433 27.2569 221.855 27.1151C221.535 26.2994 221.215 15.2703 221.215 12.4687V8.74506Z" fill="white"/>
<path d="M135.934 55.7022C135.223 51.5176 132.948 49.4252 129.18 47.9003C129.109 47.8648 129.003 47.8648 128.896 47.8648C128.754 47.8648 128.647 47.8648 128.576 47.9003C128.221 47.3329 127.332 46.6591 126.728 46.6591C125.875 46.6591 125.057 47.0137 124.524 47.6166C122.96 49.2834 122 53.4326 122 56.2697C122 60.0642 122.213 68.3272 122.391 69.462C122.818 72.2282 123.386 74.4269 125.057 74.4269C126.621 74.4269 127.119 73.5758 127.332 72.2636C127.474 71.3416 127.581 69.7103 127.652 67.6889C131.349 66.3767 134.512 64.4262 135.757 61.1636C135.97 60.5607 136.077 59.284 136.077 58.0428C136.077 57.1208 136.041 56.2342 135.934 55.7022ZM131.278 58.9649C131.207 60.1706 130.389 61.8374 127.759 62.9722C127.794 61.4118 127.794 59.816 127.794 58.2911C127.794 56.2696 127.972 53.8936 128.327 52.2978C129.109 52.7233 130.816 53.6099 131.242 55.454C131.313 55.7022 131.313 56.3406 131.313 57.0144C131.313 57.6882 131.313 58.4329 131.278 58.9649Z" fill="white"/>
<path d="M146.566 58.1847H146.708L148.308 58.2201H151.152C151.578 58.2201 152.04 58.1138 152.502 57.901C152.965 57.7237 153.356 57.3335 153.604 56.8016C153.782 56.447 153.924 56.0569 153.96 55.6313C154.031 55.3476 154.067 54.7093 154.067 53.7163C154.067 52.9361 153.995 52.2268 153.853 51.553C153.676 50.6664 153.32 49.8508 152.787 49.1061C152.254 48.2904 151.507 47.6166 150.618 47.1556C150.583 47.1556 150.512 47.1201 150.37 47.0137L150.121 46.8719L149.836 46.73C149.659 46.6591 149.588 46.6236 149.552 46.6236C149.517 46.6591 149.445 46.6236 149.268 46.5527C149.126 46.5172 149.019 46.4818 148.983 46.4818H148.948C148.912 46.5172 148.77 46.4818 148.592 46.4463C148.379 46.4108 148.237 46.4108 148.166 46.4463L146.815 46.5882C146.424 46.6236 146.069 46.7655 145.677 46.9428C145.571 46.9783 145.464 47.0492 145.358 47.1201C144.86 47.1201 144.398 47.191 144.007 47.3684C143.474 47.5811 142.976 47.9358 142.549 48.4323C142.301 48.716 142.052 49.0351 141.803 49.4252C141.554 49.8153 141.305 50.2763 141.021 50.8792C140.701 51.553 140.381 52.5815 140.061 53.9291C139.741 55.3121 139.599 56.3051 139.635 56.8725C139.67 57.1917 139.67 57.7236 139.67 58.4684L139.635 60.3479C139.635 61.0217 139.741 61.6601 139.919 62.2984C140.168 63.1141 140.665 63.9297 141.483 64.7099C142.229 65.4192 143.047 65.9511 143.936 66.2703C144.753 66.5895 145.464 66.7668 146.104 66.8023C146.602 66.8377 147.099 66.8732 147.561 66.8732H148.166C148.557 66.8732 148.948 66.7668 149.268 66.5895C149.374 66.5895 149.481 66.5895 149.588 66.625C150.05 66.6604 150.441 66.6959 150.832 66.6959C151.081 66.6959 151.294 66.6959 151.507 66.6604C152.254 66.5895 152.858 66.3767 153.356 66.0575L153.889 65.7029L154.138 65.5256C154.742 65.1 155.097 64.4972 155.097 63.6815C155.097 63.2559 154.991 62.8658 154.742 62.5112C154.315 61.9083 153.711 61.5537 152.858 61.5537C152.431 61.5537 152.04 61.6601 151.685 61.9083L151.472 62.0856C151.329 62.1566 151.187 62.2275 151.081 62.3339C150.867 62.3339 150.512 62.2984 150.05 62.263C149.694 62.2275 149.161 62.0502 148.486 61.6601C147.846 61.3409 147.419 61.0217 147.242 60.7735C147.028 60.4543 146.851 60.0288 146.744 59.4968C146.673 59.1776 146.602 58.7166 146.566 58.1847ZM146.886 53.8227H146.637C146.673 53.468 146.708 53.1134 146.779 52.7942C146.922 52.0141 147.135 51.4466 147.384 51.092L147.561 50.8792C147.81 50.8438 147.988 50.8438 148.166 50.8083L148.557 50.9856C148.806 51.1629 149.019 51.3402 149.197 51.553C149.374 51.8367 149.517 52.1204 149.588 52.4396C149.659 52.8297 149.694 53.3262 149.694 53.8581H148.308L146.886 53.8227Z" fill="white"/>
<path d="M174.44 55.8086C174.263 49.6025 174.156 47.191 168.86 47.191C167.153 47.7939 165.945 48.716 164.914 49.8153C165.198 49.4607 165.305 49.0351 165.305 48.6096C165.305 48.0067 165.092 47.5102 164.665 47.0846C164.203 46.6591 163.705 46.4463 163.101 46.4463C162.852 46.4463 162.639 46.4463 162.283 46.5172C162.035 46.4108 161.786 46.3754 161.537 46.3754C161.324 46.3754 161.146 46.4108 160.933 46.4463C159.546 46.8364 158.764 48.4323 158.693 50.4537C158.658 51.8013 158.658 53.0425 158.658 54.2128C158.658 57.2626 158.835 59.7805 159.724 63.0077C160.293 65.1 160.115 64.3553 160.257 64.9582C160.613 66.3058 161.715 67.1569 163.065 67.1569C163.883 67.1569 164.523 66.7313 164.985 66.0221L165.376 64.0361C165.412 62.3693 165.447 61.5892 165.447 61.0217C165.447 60.0288 165.376 59.9224 165.163 56.9789C167.118 54.4256 168.504 53.4681 169.108 53.1134C169.926 53.6808 170.104 55.0639 170.104 58.5393C170.104 61.0572 170.068 62.1566 169.961 64.1425C169.89 65.3483 170.744 66.4831 172.165 66.4831C173.161 66.4831 174.263 65.6674 174.334 64.4262C174.405 62.724 174.476 60.2061 174.476 58.0428C174.476 57.2272 174.476 56.447 174.44 55.8086Z" fill="white"/>
<path d="M190.647 48.1131C190.398 47.9358 190.114 47.9003 189.829 47.9003C189.261 47.9003 188.585 48.0776 187.554 48.2549L187.234 48.2904V47.191C187.234 46.8719 187.199 45.5597 187.128 44.2476C187.128 43.9993 187.092 43.7156 187.057 43.4319L187.021 43.1837C186.95 42.5808 186.666 42.1198 186.168 41.7297C185.777 41.446 185.35 41.3041 184.924 41.3041C184.817 41.3041 184.675 41.3041 184.568 41.3396C183.751 41.446 183.182 41.8715 182.862 42.6163C182.4 42.9354 182.08 43.3965 181.938 43.9284L181.867 44.2121C181.76 44.6022 181.725 45.276 181.725 46.2335V48.4677V49.177L180.232 49.4252C179.023 49.6025 177.992 50.4537 178.028 51.624C177.992 52.8297 178.988 53.9291 180.161 53.7872L181.618 53.5744C181.583 55.5604 181.511 57.369 181.476 57.6173C181.44 59.4259 181.547 62.8304 183.644 65.3128C184.284 66.0575 185.457 66.4831 187.163 66.4831C188.408 66.4831 189.687 65.3128 189.687 63.6815C189.687 62.6885 188.727 61.9083 187.554 61.5891C186.701 60.809 186.666 59.7805 186.666 58.5038C186.666 57.7946 186.737 57.0498 186.772 56.4824C186.879 55.2057 186.986 54.0355 187.057 52.8652L187.483 52.7942C189.261 52.546 190.754 52.085 191.358 51.0211C191.536 50.631 191.642 50.2409 191.642 49.8508C191.642 49.2124 191.358 48.5741 190.647 48.1131Z" fill="white"/>
<path d="M210.034 48.5741C209.785 47.3683 208.577 46.73 207.226 46.73C206.728 46.73 206.195 46.8364 205.662 47.0137C203.707 47.6521 202.392 49.2834 201.432 50.7374C201.432 49.5671 201.254 47.5102 200.188 46.9428C199.726 46.6945 199.157 46.5527 198.481 46.5172C198.161 46.4818 197.913 46.4818 197.202 46.4818C195.815 46.4818 195.14 47.7585 195.247 49.4607L195.389 55.2412C195.389 55.8086 195.247 60.277 195.247 62.2275C195.247 63.0432 195.353 64.2844 195.886 65.0291C196.064 66.1285 196.988 66.9441 198.09 66.9441C198.944 66.9441 199.939 66.3412 200.188 65.2773C200.97 62.3339 201.219 60.9154 201.432 57.8655C204.027 54.4256 206.479 52.2623 208.683 51.5176C209.572 51.1984 210.176 50.4182 210.176 49.4252C210.176 49.177 210.141 48.8578 210.034 48.5741Z" fill="white"/>
<path d="M228.712 62.7949C228.57 61.9083 228.392 60.4898 228.357 58.7521C228.321 57.9364 228.321 54.3546 228.321 54.3546C228.321 52.8297 228.108 50.9856 227.859 49.4252V48.9287C227.859 47.7585 226.864 46.7655 225.691 46.7655C224.517 46.7655 223.487 47.723 223.487 48.9287C223.487 53.3262 221.603 58.0428 219.114 60.3834C218.901 57.5109 218.617 51.4466 218.617 48.7514C218.617 47.5811 217.621 46.5527 216.448 46.5527C215.88 46.5527 215.382 46.7655 214.955 47.1556C214.742 47.0846 214.529 47.0492 214.351 47.0492C213.498 47.0492 212.858 47.723 212.858 49.1061C212.858 50.9856 212.325 53.468 212.325 56.4115C212.325 62.5821 213.391 66.4831 217.337 66.4831C220.536 66.4831 222.42 63.2914 224.02 59.8869C224.091 61.1991 224.446 63.8233 224.446 64.639C224.446 65.8802 225.442 66.8377 226.65 66.8377C227.859 66.8377 228.819 65.8802 228.819 64.639V63.9652C228.819 63.717 228.783 63.3269 228.712 62.7949Z" fill="white"/>
<path d="M126.834 83.7641C127.652 82.8066 128.47 82.1328 129.891 82.1328C134.584 82.2747 135.188 86.0693 135.188 91.2824C135.188 93.1265 135.117 95.1124 135.117 97.1693C135.117 98.7297 135.046 100.006 134.761 102.702C134.264 107.064 131.811 110.574 127.936 110.574C127.403 110.574 126.301 110.504 125.804 110.007C125.057 109.44 123.884 108.198 123.137 107.099C122.071 105.68 122 105.219 122 99.1198V95.467C122 87.4523 122.178 85.36 123.813 83.7641C124.204 83.374 124.702 83.1613 125.306 83.1613C125.91 83.1613 126.408 83.374 126.834 83.7641ZM129.429 105.29C130.425 103.588 130.816 99.368 130.851 97.8076C130.851 94.6159 130.851 89.2255 130.14 86.8495C127.51 87.8779 127.225 92.6654 127.225 97.5594V98.8715C127.225 101.496 127.261 102.772 127.652 103.624C128.15 104.688 129.429 105.255 129.429 105.29Z" fill="white"/>
<path d="M152.986 99.9354H152.489C152.524 99.9354 150.64 85.0054 150.64 84.9699C150.64 82.8776 149.787 81.991 148.436 81.991C147.619 81.991 146.979 82.3456 146.552 83.0903C146.268 83.0194 146.019 82.9839 145.77 82.9839C144.597 82.9839 143.851 83.7287 143.637 84.6507C142.109 87.6651 138.732 103.304 138.732 107.064C138.732 107.383 138.768 107.596 138.803 107.737C139.052 108.553 139.301 109.333 139.976 109.333C140.225 109.333 140.58 109.191 141.043 108.872C141.291 108.979 141.576 109.014 141.825 109.014C142.998 109.014 143.389 108.198 143.637 107.064C143.709 106.744 143.993 105.716 144.313 104.297H148.259V105.149C148.259 106.886 149.254 108.482 150.747 108.482C152.026 108.482 152.951 107.454 152.951 106.283C152.951 106.035 152.915 105.787 152.809 105.539L152.631 105.113V104.297H152.986C154.159 104.297 155.19 103.269 155.19 102.099C155.19 100.928 154.159 99.9354 152.986 99.9354ZM145.344 99.9354C146.09 96.6728 146.837 93.4456 146.908 92.9846L147.334 92.7009C147.654 94.4741 147.939 97.7722 148.116 99.9354H145.344Z" fill="white"/>
<path d="M172.447 99.2616L172.874 99.1198C172.874 102.489 172.909 108.092 172.909 107.879L172.945 108.908C172.98 110.042 173.976 111 175.149 111C176.393 111 177.353 109.972 177.317 108.766C177.317 107.879 176.891 104.333 176.891 104.085V101.354V96.5664C176.891 90.7504 176.82 86.282 176.18 84.7571C175.469 84.1188 174.367 83.4095 173.265 83.4095C172.625 83.4095 172.092 83.906 171.914 84.8635C171.416 86.814 171.843 85.1117 170.634 90.8568C170.457 92.098 170.066 93.4102 169.248 95.9635C166.795 87.6651 165.622 85.0763 163.632 85.0763C163.454 85.0763 163.312 85.0763 163.134 85.1118V84.828C163.134 83.6577 162.174 82.6648 160.966 82.6648C159.757 82.6648 158.762 83.6223 158.762 84.828V91.8143C158.762 95.0415 159.224 103.304 159.864 105.184C159.864 106.709 160.895 109.759 162.814 109.759C164.165 109.759 166.084 108.837 166.084 107.241C166.084 106.744 165.907 106.248 165.587 105.822L165.196 104.085C164.591 101.318 163.987 99.1198 163.703 96.6373L164.165 96.5664C164.52 97.8076 165.231 99.5808 166.369 102.524C166.831 103.695 168.039 104.439 169.106 104.439C170.99 104.439 171.381 102.808 172.447 99.2616Z" fill="white"/>
<path d="M186.349 83.5159C186.597 83.5159 186.74 83.0903 187.77 83.0903C188.019 83.0903 188.233 83.1258 188.872 83.2677C191.112 83.7996 192.783 84.0833 193.707 84.4025C194.595 84.7216 195.2 85.5728 195.2 86.4948C195.2 87.807 194.133 88.6581 193.031 88.6581C193.067 88.6581 189.05 87.7006 189.05 87.736C188.943 88.8354 188.695 92.4172 188.588 94.084H190.01C191.183 94.084 192.178 95.1124 192.178 96.2827C192.178 97.453 191.183 98.446 190.01 98.446H188.339C188.304 99.7581 188.268 100.609 188.268 101.709C188.268 102.489 188.304 103.375 188.304 104.652C188.979 104.794 189.263 104.829 190.294 104.829C190.508 104.723 190.756 104.617 191.218 104.617C192.356 104.617 193.458 105.432 193.458 106.78C193.458 108.411 191.894 109.191 190.152 109.191C187.379 109.191 186.029 108.801 184.678 107.099C184.287 107.489 183.718 107.737 183.149 107.737C181.692 107.737 180.874 106.567 180.874 104.688V97.914C180.874 92.3108 181.088 90.8568 182.545 85.5728C182.616 85.3955 182.652 85.2181 182.687 84.9344C182.794 83.8351 183.754 82.9485 184.856 82.9485C185.424 82.9485 185.922 83.1613 186.349 83.5159Z" fill="white"/>
<path d="M210.482 96.9565L210.944 96.8856C211.051 90.9987 211.229 87.2041 211.478 85.6437C211.442 85.1118 211.513 84.6862 211.762 83.906C212.082 82.9839 212.935 82.3456 213.895 82.3456C215.139 82.3456 216.028 83.445 216.028 84.6153C215.53 88.4453 215.317 92.3463 215.317 97.8786C215.317 100.538 215.21 104.439 215.103 105.858C214.926 108.057 213.788 109.759 211.869 109.759C211.513 109.759 211.229 109.617 210.909 109.333C210.411 108.872 210.056 107.95 210.02 107.241V107.205C209.594 106.354 209.238 105.539 208.705 103.801C208.456 102.95 207.745 101.744 207.568 100.999L205.79 96.531L205.328 96.7792C205.328 98.4814 205.932 104.652 205.932 106.673C205.932 108.234 205.008 109.156 203.764 109.156C203.266 109.156 202.804 109.014 202.413 108.695C202.129 108.837 201.844 108.908 201.525 108.908C200.849 108.908 199.818 108.305 199.818 107.134V106.496C198.787 104.758 198.752 103.907 198.752 101.602C198.752 90.2185 199.889 88.268 199.889 85.6437C199.889 85.7856 199.783 84.899 199.783 84.5798C199.783 83.3741 200.743 82.2747 201.951 82.2747C203.337 82.2747 204.759 83.4095 204.759 85.1118C204.901 85.0763 205.044 85.0763 205.186 85.0763C206.963 85.0763 207.496 87.4169 209.096 92.5945C209.558 94.084 210.02 96.1054 210.482 96.9565Z" fill="white"/>
<path d="M221.215 87.6651C220.255 87.3814 219.58 86.5303 219.58 85.5373C219.58 84.367 220.611 83.0549 222.139 82.8776C222.53 82.5584 222.957 82.4165 223.419 82.4165C223.632 82.4165 223.988 82.4875 224.521 82.4875C224.805 82.4875 225.09 82.4875 225.445 82.4165C225.836 82.0974 226.298 81.9201 226.796 81.9201C227.969 81.9201 229 82.9485 229 84.1188C229 84.6862 228.502 98.2332 228.431 99.2616C228.325 100.716 228.325 101.78 228.325 105.113C228.325 105.574 228.182 106.035 227.898 106.425C227.969 106.673 228.111 106.922 228.111 107.383C228.111 108.34 227.471 109.12 226.512 109.511C225.588 109.901 223.277 110.291 222.957 110.291C220.824 110.291 219.722 109.759 219.722 108.198C219.722 107.205 220.433 106.177 221.855 106.035C221.535 105.219 221.215 94.1904 221.215 91.3888V87.6651Z" fill="white"/>
<path d="M43.2206 47.1487C43.8361 45.7166 45.35 43.7513 47.367 43.6632C48.5979 43.6103 49.5638 44.2757 50.5521 45.1173L54.0471 43.0772L54.384 43.6015L51.2709 45.7518C53.1431 47.5047 54.5444 49.6845 55.3499 52.0971C55.57 50.8192 56.3697 47.25 59.4828 45.1438C60.2645 44.615 62.4073 43.1565 64.2492 43.932C65.0436 44.3201 65.6711 44.9731 66.0192 45.7739L71.6121 41.7508L70.9787 40.7109L65.6643 43.0463L65.5025 42.6629L71.9356 37.8159L71.1584 36.5733L56.5269 44.7604C59.4514 41.98 62.7488 39.8164 65.9832 37.5779C69.065 35.4452 73.1036 33.9471 72.1692 28.3773L50.7093 40.8563L50.4173 40.3848L74.6759 24.0811L73.9885 22.9883L70.3587 24.2353L72.1557 18.9829L61.0956 23.6713L60.7631 23.1822L65.0398 18.507L62.7398 16.5417L58.9438 17.9518L61.3067 14.1005L55.5476 14.8805L54.8063 12.8888L52.8567 11.4567L50.2511 15.0964L51.1496 12.2983L46.801 13.9816L46.4102 13.2942L51.4011 9.32839L50.7632 8.26204L42.8118 11.8973V7.3455L39.0338 8.22678L40.7948 5.72834L40.4623 4.84706L31.7472 6.90927L37.0662 2.331L36.837 1.1016L28.4948 1.64359L29.236 0C25.4176 0.929754 21.2307 0.0308452 18.2433 4.34032L22.1561 2.96552L22.4616 4.20372L13.1805 6.11611L15.0583 2.73198L14.3754 2.31337L8.98464 5.43752L7.18772 2.29574C6.81934 4.09356 6.93165 5.26126 6.39257 5.82088C5.57497 6.64047 3.54893 7.70683 3.3378 7.4821C1.21742 5.20839 0.81311 7.43363 0 8.12103L3.05478 10.3463H10.5659L8.53541 15.7618C11.3835 18.8154 14.043 15.7618 17.237 15.3608L10.8714 19.7672L12.0574 21.1508H17.6908L15.5794 24.0282L17.9917 25.5308L14.7258 29.0251L18.8678 28.6858L19.1957 33.7047L21.8327 33.2068L19.7393 37.2563L26.3654 36.3353L21.6215 40.2614L25.759 39.8208L26.0016 42.403L30.13 40.9797C29.0159 41.9139 28.697 42.3016 28.2792 42.5087C24.3798 44.3286 28.9395 46.5626 27.9557 48.5103C29.3349 48.4309 30.9341 48.7658 32.0527 48.1974C35.7679 46.3159 39.3258 44.1303 42.9151 42.0284C47.3131 39.4463 51.6842 36.82 56.0642 34.2114C50.9115 38.4548 45.314 42.0108 39.8514 45.7518C36.4237 48.0961 31.7652 49.5722 32.3896 55.6927L42.722 49.6603C42.7094 48.7983 42.8792 47.9431 43.2206 47.1487Z" fill="white"/>
<path d="M35.1074 56.9089L36.0418 58.3101L43.8315 53.9037C43.4652 53.125 43.1764 52.3134 42.969 51.4802L35.1074 56.9089Z" fill="white"/>
<path d="M44.3257 54.9128L40.085 58.059L40.7274 59.0769L45.4218 56.7943C45.0673 56.2654 44.7419 55.7182 44.447 55.1551L44.3257 54.9128Z" fill="white"/>
<path d="M67.0255 51.2731C66.8547 52.9123 66.1 55.045 64.7793 57.4817L82.6902 45.8928L74.5276 46.5318L75.4261 43.1476C74.0784 43.4164 72.6319 43.4341 71.4639 44.0289C69.7613 44.8706 68.1126 45.7915 66.4684 46.7697C66.984 48.2136 67.1741 49.7501 67.0255 51.2731Z" fill="white"/>
<path d="M42.6504 72.4239C47.9783 71.1637 52.4661 68.2378 57.1022 65.6336C55.709 65.088 54.3578 64.4445 53.0591 63.708C49.3664 66.3298 45.5749 68.8106 42.6504 72.4239Z" fill="white"/>
<path d="M45.8982 57.4994L38.8003 62.5711L38.8901 63.6727L42.6996 64.554L40.9252 67.4182L41.5541 68.1497C44.5819 66.7308 47.6681 65.4265 50.6151 63.8666C51.0643 63.6199 51.545 63.3555 52.0077 63.0955C49.6275 61.6274 47.5541 59.7282 45.8982 57.4994Z" fill="white"/>
<path d="M97.9998 83.9731L97.8201 83.2769L95.8884 83.1403L97.8156 80.9812L97.4023 80.4392L91.5623 83.0169L94.8327 78.0817L87.2632 79.2054L94.7519 70.3925L92.2317 69.4319L92.5192 66.3034C90.7492 66.017 88.3189 65.7394 88.3278 65.6072C88.5929 61.3065 84.7924 61.8793 82.1554 60.6059L84.6711 55.6178C76.3783 54.7365 71.7736 62.0292 64.4197 64.0781C71.0863 58.3498 79.4151 55.4592 84.7295 48.9201L83.9029 47.6907L64.0244 59.046L63.9705 58.9535C62.9589 60.6339 61.8443 62.2526 60.6327 63.8005C61.3245 63.4656 62.0253 63.1396 62.7351 62.8443C61.636 63.6874 60.5264 64.5129 59.4063 65.3208C59.1547 65.6248 58.8986 65.9244 58.6381 66.2329L58.3012 66.1139C54.9634 68.4934 51.5627 70.7627 48.1934 73.0716C42.906 76.6981 42.8026 77.3282 45.9473 81.9241L40.5879 93.5174L41.3876 94.0682L46.4549 91.9223L46.6076 92.3145L39.083 97.8225L39.7389 98.9329L49.3929 95.6281L42.1782 101.356L45.6014 101.696L40.9698 105.216L43.1261 108.526L55.0891 101.709C51.6435 104.948 47.8251 107.614 44.2492 110.561C43.2249 111.407 42.2636 113.1 42.3624 114.311C42.5196 116.193 43.6203 117.995 44.3795 119.996L50.5474 116.47L49.6489 119.855C54.6759 118.255 52.3129 113.835 54.5186 111.54L53.8313 110.945L44.9904 116.056C44.658 115.312 44.2267 114.554 44.3031 114.501C49.348 111.029 54.4378 107.614 59.7252 104.058L56.5132 103.494L55.772 102.502C64.532 102.198 65.4484 95.0112 68.6425 89.6794L61.8456 93.2046L61.6165 92.7066L66.8051 88.6263L66.302 87.745L59.4063 90.9617C60.5473 87.745 66.8411 88.3178 64.258 82.8759C66.2301 81.9153 68.1438 80.4744 70.2418 80.1439C71.6523 79.9192 73.319 81.2676 74.6802 81.8316L71.2301 84.7575L71.85 85.4801L85.5516 77.954L86.3872 78.7824L78.6649 84.7927C82.7574 85.2025 85.9649 86.0838 85.1518 82.1489L89.9136 82.4705L86.5399 86.9078L97.9998 83.9731Z" fill="white"/>
</svg>
