<svg width="18" height="18" viewBox="0 0 18 18" fill="none" xmlns="http://www.w3.org/2000/svg">
<path d="M15.1404 6.446L14.1828 3.48128C14.0439 3.04974 13.7767 2.67434 13.4192 2.40842C13.0617 2.14251 12.632 1.9996 12.1913 2H5.8087C5.36797 1.9996 4.93833 2.14251 4.58082 2.40842C4.22331 2.67434 3.95611 3.04974 3.8172 3.48128L2.8596 6.446C2.60523 6.55612 2.38799 6.74122 2.23509 6.97811C2.08219 7.215 2.00041 7.49316 2 7.77778V11.3889C2 11.9327 2.2961 12.4014 2.7273 12.6477C2.7182 12.6954 2.7 12.7387 2.7 12.7886V14.2778C2.7 14.4693 2.77375 14.653 2.90503 14.7885C3.0363 14.9239 3.21435 15 3.4 15H4.1C4.28565 15 4.4637 14.9239 4.59497 14.7885C4.72625 14.653 4.8 14.4693 4.8 14.2778V12.8333H13.2V14.2778C13.2 14.4693 13.2737 14.653 13.405 14.7885C13.5363 14.9239 13.7143 15 13.9 15H14.6C14.7857 15 14.9637 14.9239 15.095 14.7885C15.2263 14.653 15.3 14.4693 15.3 14.2778V12.7886C15.3 12.7387 15.2818 12.6947 15.2727 12.6477C15.4921 12.5243 15.6753 12.3424 15.8033 12.121C15.9312 11.8995 15.9991 11.6467 16 11.3889V7.77778C16 7.17906 15.6444 6.66483 15.1404 6.446ZM3.4 11.3889V7.77778H14.6L14.6014 11.3889H3.4ZM5.8087 3.44445H12.1906C12.4923 3.44445 12.7597 3.64233 12.8549 3.93845L13.6291 6.33333H4.3709L5.1444 3.93845C5.19084 3.79457 5.28 3.66944 5.39923 3.58077C5.51847 3.4921 5.66172 3.44441 5.8087 3.44445V3.44445Z" fill="#A7E45A"/>
<path d="M5.7751 10.4C6.28596 10.4 6.7001 9.98591 6.7001 9.47505C6.7001 8.96419 6.28596 8.55005 5.7751 8.55005C5.26423 8.55005 4.8501 8.96419 4.8501 9.47505C4.8501 9.98591 5.26423 10.4 5.7751 10.4Z" fill="#A7E45A"/>
<path d="M12.5588 10.4C13.0697 10.4 13.4838 9.98591 13.4838 9.47505C13.4838 8.96419 13.0697 8.55005 12.5588 8.55005C12.0479 8.55005 11.6338 8.96419 11.6338 9.47505C11.6338 9.98591 12.0479 10.4 12.5588 10.4Z" fill="#A7E45A"/>
</svg>
