<svg width="212" height="137" fill="none" xmlns="http://www.w3.org/2000/svg"><g clip-path="url(#clip0)"><path d="M203.645 26.642l-3.574 1.204 2.941 8.627 3.574-1.204-2.941-8.627z" fill="#FEFEFE"/><path d="M164.431 50.324c8.938-.148 17.156 3.271 25.758 4.765 3.365.592 6.816.543 10.155 1.308a59.55 59.55 0 017.448 2.148 13.053 13.053 0 01-9.559.654c-10.452-3.48-21.363-4.58-32.138-6.357-1.937-.296-1.403-1.641-1.664-2.518z" fill="#FCFCFC"/><path d="M119.431 60.236l.832.086c1.092.408 2.123-.197 3.19-.21l4.668-.086h.546l.608.53c0 .754-.757.939-1.092 1.445a8.95 8.95 0 00-1.688 2.037 3.87 3.87 0 001.365 5.394 6.91 6.91 0 004.687.972 6.888 6.888 0 004.189-2.305c.174-.136.36-.26.583-.111l1.242 2.049-.311.308a6.225 6.225 0 01-3.128 1.235c-1.477.395-3.016.543-4.518.876-2.999.4-6.028.527-9.05.383a4.277 4.277 0 01-.745-.111 5.39 5.39 0 00-1.837-.223 11.6 11.6 0 00-2.483-.222c-.322 0-.583-.173-.62-.543v-1.037c.459-.58 1.067-.284 1.638-.296 3.588-.086 4.966-.555 6.083-3.308.968-1.938-.708-4.407-2.967-5.616-.484-.222-1.005-.346-1.502-.556-.248-.11-.658-.21-.546-.555.112-.346.596-.222.856-.136z" fill="#F6F6F6"/><path d="M122.895 55.62a25.949 25.949 0 01-8.268-1.309c-6.294-2.012-8.962-7.949-6.281-13.923 1.018-2.284 2.979-3.63 4.965-4.938 5.884-3.95 12.253-3.85 18.484-1.42a17.069 17.069 0 017.299 5.309 8.049 8.049 0 011.738 7.209 8.976 8.976 0 01-1.733 3.573 9.049 9.049 0 01-3.108 2.487 27.639 27.639 0 01-13.096 3.012z" fill="#FAFAFA"/><path d="M138.449 53.484a6.56 6.56 0 01-3.798 2.913 33.199 33.199 0 01-18.621 1.407 10.88 10.88 0 01-5.189-2.839c9.497 4.37 18.658 3.617 27.608-1.48z" fill="#F4F4F4"/><path d="M124.223 34.204c4.059-.617 7.448 1.505 10.738 3.703 5.176 3.505 4.73 10.183-.931 12.886a25.828 25.828 0 01-20.917.617c-2.483-.938-3.799-3.777-3.451-7.06.11-1.58.601-3.11 1.431-4.46a9.9 9.9 0 013.336-3.304c2.942-1.765 5.983-3 9.794-2.382z" fill="#FEFEFE"/><path d="M131.82 24.847c8.889 1.815 17.02 4.938 22.345 12.874 2.14 3.07 3.1 6.802 2.706 10.517-.273 2.469-1.08 3.024-3.538 2.469a49.684 49.684 0 00-7.771-1.235c-.595 0-1.353-.444-1.75.31a2.58 2.58 0 00-.174 2.653c.398.666.857 1.296 1.242 1.95-.447.482-1.018.222-1.54.235a4.501 4.501 0 00-3.698 1.62 4.44 4.44 0 00-.882 3.922c.109.533.352 1.03.707 1.444a8.126 8.126 0 005.462 2.679c1.676.234 3.551-1.531 3.724-3.333a5.023 5.023 0 00-.993-3.703c-.372-.482-.993-.852-.968-1.58 2.222.395 4.32 1.481 6.877 1.086a27.586 27.586 0 01-8.962 10.208 10.415 10.415 0 01-6.319 3.086 4.114 4.114 0 01-1.353-2.296c.832-4.382-1.353-6.962-5.909-6.986a7.6 7.6 0 01-1.924-.111c-.385-.16-.695-.383-.646-.864a4.686 4.686 0 012.322-.877 20.889 20.889 0 006.827-2.839 10.418 10.418 0 003.262-3.595 10.35 10.35 0 001.269-4.675c.075-1.728.658-3.382.633-5.135a3.902 3.902 0 00-1.601-3.32 10.356 10.356 0 01-1.875-1.679c-.794-.975-.595-1.53.658-1.63a7.877 7.877 0 003.538-.987c.436-.196.813-.5 1.095-.885a2.744 2.744 0 00-.548-3.805 6.943 6.943 0 00-5.748-1.901 4.211 4.211 0 00-2.325 1.376c-.602.701-.954 1.58-1.002 2.5 0 .37.162.888-.285 1.061-.447.173-1.018-.247-1.453-.555a.861.861 0 01-.398-.563.85.85 0 01.15-.672c.293-.624.554-1.262.782-1.913a2.849 2.849 0 00-.968-3.555 5.756 5.756 0 01-.981-.9.367.367 0 01.012-.396z" fill="#FEFEFE"/><path d="M146.481 68.099a23.008 23.008 0 009.534-12.072c-.336 6.307-5.537 12.998-12.526 16.528a11.35 11.35 0 01-3.438 1.839 43.556 43.556 0 01-29.669.284 40.228 40.228 0 01-10.452-5.69c-.733-.519-1.378-1.16-2.135-1.654-1.502-1.47-3.24-2.753-3.91-4.938a.456.456 0 01.421-.407c1.565.889 2.483 2.468 3.998 3.468.645.432 1.24.95 1.874 1.432a26.907 26.907 0 008.019 3.851 40.12 40.12 0 008.69 2.012c.62.16 1.241.185 1.899.321a8.825 8.825 0 002.234.16c3.417.345 6.858.37 10.279.075a30.78 30.78 0 006.592-1.383 25.504 25.504 0 003.724-1.444 23.616 23.616 0 003.463-1.765 3.644 3.644 0 011.403-.617z" fill="#F8F8F8"/><path d="M145.239 51.3a2.859 2.859 0 012.247.148c3.811 1.863 7.597 2.085 11.334-.247.323 2.16 0 2.69-1.837 3.147a14.97 14.97 0 01-10.887-1.753c-.385-.172-.36-.21-.857-1.296z" fill="#F9F9F9"/><path d="M144.495 63.384a5.817 5.817 0 01-3.724-1.334 3.483 3.483 0 01-1.438-1.73 3.465 3.465 0 01-.077-2.244 3.787 3.787 0 011.167-1.85 3.817 3.817 0 011.999-.903c2.631-.568 6.02 2.469 5.71 5.184-.174 2.05-1.192 2.877-3.637 2.877z" fill="#FCFCFC"/><path d="M105.069 36.71c-2.011 0-3.724-.297-4.692-2.247a1.575 1.575 0 01.372-2.098 8.378 8.378 0 015.214-2.21c1.787-.111 4.22 2.37 3.885 4.073a2.917 2.917 0 01-2.073 2.086 6.813 6.813 0 01-2.706.395zM139.604 28.982a5.674 5.674 0 014.494 2.173 1.925 1.925 0 01.5 1.661 1.928 1.928 0 01-1.047 1.388 8.398 8.398 0 01-4.891 1.505 3.73 3.73 0 01-2.111-1.13 3.699 3.699 0 01-.98-2.178 3.687 3.687 0 011.299-2.548 3.723 3.723 0 012.736-.87zM120.412 28.995c0 1.012-.286 1.777-1.502 1.95a18.234 18.234 0 00-5.71 1.53.7.7 0 01-.82-.074 3.162 3.162 0 01-.223-4.456 7.893 7.893 0 015.772-2.024 3.08 3.08 0 011.805 1.087c.455.562.695 1.266.678 1.987zM133.695 28.526a4.927 4.927 0 01-1.527 3.036c-.36.37-.695.222-1.055.086a25.188 25.188 0 00-5.735-1.32c-1.242-.136-1.639-.901-.994-2.037 1.304-2.333 5.971-3.48 8.231-1.987a2.55 2.55 0 011.08 2.222zM109.438 59.742c0 2.79-2.482 4.592-5.623 4.382a4.558 4.558 0 01-1.03-.173c-1.242-.382-2.768-.58-3.153-2.073a4.26 4.26 0 01.115-2.414c.271-.777.761-1.46 1.412-1.968 2.135-1.901 6.554-1.728 7.758.679.275.483.452 1.016.521 1.567zM98.353 38.265c.72.061 1.415.098 2.098.197 1.676.247 2.632 1.074 2.781 2.395.17.736.06 1.51-.309 2.17a3.074 3.074 0 01-1.69 1.41 8.048 8.048 0 01-5.921.308 1.44 1.44 0 01-.838-.567 1.426 1.426 0 01-.255-.976 5.404 5.404 0 01.517-2.572c.38-.803.953-1.5 1.668-2.032.609-.53 1.316-.21 1.95-.333z" fill="#FDFDFD"/><path d="M120.114 61.618c1.726.939 3.153 2.099 2.992 4.333-.857 2.839-3.228 4.049-7.014 3.58a8.963 8.963 0 01-3.339-1.087 4.5 4.5 0 01-.484-5.357c1.241-2.012 3.513-2.147 5.698-2 .73.114 1.449.291 2.147.531z" fill="#F9F9F9"/><path d="M136.289 67.778a9.533 9.533 0 01-6.082 1.888 3.338 3.338 0 01-2-.64 3.313 3.313 0 01-1.216-1.705c-.595-1.567-.72-3.036.683-4.27.36.592 1.341.32 1.54 1.123 0 .197-.274.456.136.53.41.074.77-.234.869-.715a3.746 3.746 0 012.88-1.086c.141.072.254.19.323.333 0-.161-.186-.235-.286-.358-.956-.346-1.787.197-2.669.333a3.744 3.744 0 01-2.818-.111c0-.519.559-.519.696-.889a5.846 5.846 0 017.311.778 3.684 3.684 0 01.633 4.79z" fill="#FCFCFC"/><path d="M192.262 99.784a9.885 9.885 0 01-4.816 1.803c-.273 0-.671 0-.609.407a.667.667 0 00.658.506 6.12 6.12 0 003.948-1.037c.323-.226.633-.47.931-.728.571 2.123-.695 3.592-3.066 3.518a319.922 319.922 0 00-22.034 0c-5.102.222-10.204.605-15.306.901-.547 0-1.068.099-1.056.74.013.642.671.408 1.031.408 11.271 0 22.543.111 33.802-.358a25.554 25.554 0 006.877-.988c0 4.061-.062 8.048 0 12.023.075 3.604.273 7.196.497 10.788.062 1.049-.075 1.395-1.242 1.395-14.151-.062-28.278-.778-42.392-1.531a177.522 177.522 0 00-29.284 1.037c-4.047.455-8.126.55-12.19.284a78.225 78.225 0 00-14.896.346c-4.147.518-8.218-.247-12.315-.593a185.381 185.381 0 00-20.52-.592c-1.998 0-2.147-.099-2.06-2.049.302-6.237.036-12.487-.795-18.676-.173-1.234-.111-1.728 1.49-1.506a65.03 65.03 0 009.062.469c.62 0 1.154-.148 1.241-.802 0-.852-.695-.63-1.241-.654l-7.734-.408a6.125 6.125 0 01-2.383-.691c-.41-.197-.695-.296-.584-.802.112-.506.546-.185.832-.222.286-.037.695.111 1.03-.309-.335-.593-1.017-.63-1.564-.889a.48.48 0 01-.285-.605c.124-.382.36-.135.57 0a2.177 2.177 0 001.826 0c-.596-.839-1.701-.79-2.396-1.641.794-.222 1.465.469 2.185.086-.112-1.234-1.689-.802-2.098-1.802 8.776 1.296 17.503.395 26.192.864 9.186.506 18.348 0 27.534-.333 26.342-.84 52.708-1.037 79.062-.889h.435c-.311.654-1.242.47-1.453 1.234.41.408.931.074 1.366.173.198.74-.559.728-.869 1.074.981.074 1.626-.778 2.483-.864a.551.551 0 01.313.42.545.545 0 01-.177.493z" fill="#FEFEFE"/><path d="M85.281 128.372c.15-.988-7.622-1.383-14.809-6.048-7.945-5.148-9.93-12.085-11.905-11.455-1.316.407-2.246 3.937-.248 18.132h22.146c3.947.074 4.767-.259 4.816-.629z" fill="#F5F7A9"/><path d="M205.085 34.673a29.466 29.466 0 012.222 8.702c0 .37.385.889 0 1.074-.414.099-.851.06-1.241-.111-.645-.21-.298-.753-.236-1.136a12.82 12.82 0 00-.174-5.135c-.111-.456 0-1.135-.782-1.358.168 2.107.218 4.22.149 6.333-.149 1.234-.707 1.234-1.601.814a29.711 29.711 0 01-.112-4.394c-.136.938 0 2.012-.111 3.073-.063.544 0 1.235-.969 1.074a138.647 138.647 0 00-16.013-2.407 98.625 98.625 0 01-20.309-4.357c-.869-.284-1.018-.666-.956-1.481.32-3.544.153-7.116-.496-10.615-.398-2.012-1.527-3.123-3.563-2.975-1.117.086-1.242-.346-1.242-1.235-.26-1.95-.645-3.888-.931-5.85-.173-1.235-.657-1.79-2.011-1.815a62.036 62.036 0 00-9.806.062c-.857.123-1.378.37-1.527 1.234-.099.63-.298 1.235-.41 1.876-.112.642 0 1.926-.434 2.37-.435.445-1.589.223-2.409.309a71.76 71.76 0 01-9.521.37c-.434 0-1.241-.358-1.241.309 0 .666.732.444 1.154.469 3.621.143 7.246.102 10.862-.123.41 0 1.018-.395 1.242.135a4.13 4.13 0 01.086 2.173c-.124.456-.782 0-1.241 0a42.056 42.056 0 00-7.56.358 36.647 36.647 0 01-8.429.061 60.617 60.617 0 00-15.132.37 1.623 1.623 0 01-1.489-.27 1.541 1.541 0 00-1.242-.235c-1.812.259-3.649.407-5.462.69-.794.124-.918-.16-.894-.85a30.73 30.73 0 00-1.055-7.9c-.174-.79-.447-1.235-1.353-1.235-3.128 0-6.207-.123-9.385-.099-2.073 0-2.78.74-3.016 2.765-.236 2.025-.472 3.913-.658 5.876-.062.716-.174 1.024-1.08 1.135-1.328.173-2.644.247-3.985.284a5.14 5.14 0 00-1.738.346c-1.08.432-2.073 1.63-3.215 0-.186-.26-1.005-.358-1.241.074-.236.432.447.617.807.765.956.407 1.142.74 1.067 2.037-.186 3.073-2.271 3.703-4.456 4.468a61.044 61.044 0 00-14.673 7.406 8.694 8.694 0 00-.844.605.901.901 0 00-.214 1.02c.05.114.122.216.214.3a.743.743 0 00.9.291.745.745 0 00.279-.191c3.352-3.185 7.585-4.506 11.917-5.715a16.327 16.327 0 006.89-4.185 13.107 13.107 0 006.418 7.32c-3.811 2.222-7.449 4.394-11.173 6.505a5748.971 5748.971 0 01-29.557 16.935c-.72.407-1.117.457-1.663-.296a20.366 20.366 0 01-3.724-8.9 1.228 1.228 0 01.457-1.322c.134-.099.287-.17.45-.208a17.517 17.517 0 006.119-3.827c.472-.444 1.068-.901.484-1.605-.583-.703-1.067-.11-1.54.21l-6.057 4.246c-.143-2.355.045-4.72.559-7.023a109.738 109.738 0 015.275-20.293 2.688 2.688 0 011.39-1.567c11.868-6.382 24.902-9.542 37.85-12.677a211.335 211.335 0 0124.691-4.592 129.831 129.831 0 0129.11-.074 234.72 234.72 0 0125.323 3.63c10.353 2.258 20.135 6.233 29.967 10.034 1.614.617 3.19 1.346 4.841 1.852a3.938 3.938 0 012.483 2.098c3.352 6.172 6.728 12.344 8.689 19.231.425 1.417.703 2.873.832 4.345 0 .297.385.926-.385.778-.422-.074-1.154.222-1.117-.753a24.228 24.228 0 00-.832-6.011 38.497 38.497 0 00-4.295-10.332c-2.023-3.703-5.698-4.937-9.571-5.764a5.079 5.079 0 00-3.513.05 12.617 12.617 0 004.246 1.233c2.042.206 3.998.923 5.685 2.087a9.663 9.663 0 012.123 2.58.845.845 0 01-.484.333c-.72.21-.373.604-.186.987.186.383.434.679.608 1.037a34.94 34.94 0 012.172 4.197c.211.407.422.74.695 0a.263.263 0 01.298 0z" fill="#FEFEFE"/><path d="M190.537 22.465c.099.913-11.346 0-19.142 6.986-3.848 3.42-5.934 7.974-6.914 7.493-.472-.235-.1-1.333 0-4.814.111-4.419-.422-4.937.124-6.036.956-2.012 3.6-2.469 8.888-3.469 4.148-.734 8.37-.97 12.575-.703 2.433.086 4.419.16 4.469.543z" fill="#F5F7A9"/><path d="M79.919 73.444l.695-.729c.546 1.235-.236 2.222-.57 3.296-1.031 2.469-2.335 4.863-3.588 7.258 2.606-1.901 3.91-4.69 5.09-7.542.372-.753.434-1.654 1.104-2.259a50.514 50.514 0 002.036-11.319c1.154-10.492 2.756-20.91 4.071-31.377.547-4.345.882-8.727 1.242-13.096.062-.778.273-1.173 1.105-1.235 2.979 0 5.933.47 8.913.272.571 0 .658.37.695.765.427 2.975.585 5.983.472 8.986a3.29 3.29 0 01-1.242 2.383 18 18 0 00-3.724 4.036c-.26.407-.894.852-.161 1.358a.958.958 0 001.415-.346c5.462-7.258 13.357-9.245 21.823-9.875a44.067 44.067 0 019.794.309.441.441 0 010 .617c-.98.481-2.11.47-3.091.988a3.726 3.726 0 00-1.818 1.379 3.687 3.687 0 00-.664 2.175c0 1.037-.658 1.074-1.391 1.074-.732 0-1.303-.148-1.241-1.061a5.27 5.27 0 00-.062-1.333 3.291 3.291 0 00-1.201-2.163 3.326 3.326 0 00-2.374-.726 9.1 9.1 0 00-5.524 2.148 3.505 3.505 0 00-.621 4.098c.199.457.484.864.683 1.309a.658.658 0 01.076.57.667.667 0 01-.399.417.73.73 0 01-.578.097.735.735 0 01-.465-.356c-.26-.37-.397-.79-.62-1.234a4.604 4.604 0 00-2.89-2.513 4.634 4.634 0 00-3.801.538c-.658.345-1.242.802-1.912 1.123a2.409 2.409 0 00-1.13.746 2.389 2.389 0 00.571 3.574 5.862 5.862 0 005.338 1.63c.472-.112 1.055-.359 1.403 0 .348.357-.075 1.011-.323 1.468a12.567 12.567 0 00-1.03 10.159c.071.184.125.374.161.568.683 5.283 4.134 7.936 8.926 9.356.929.156 1.837.417 2.706.778 0 1.073-.882.715-1.39.74a5.76 5.76 0 00-4.308 1.926 4.139 4.139 0 00-1.193 3.05 4.138 4.138 0 001.404 2.961c1.006 1.037 2.545 1.234 3.6 2.135a1.076 1.076 0 01-.087 1.124c-1.08.333-2.023-.272-3.016-.494a30.6 30.6 0 01-4.656-1.518 54.537 54.537 0 01-9.024-5.073c-4.333-3.074-7.337-6.987-8.044-12.344a23.327 23.327 0 011.092-9.59 1.366 1.366 0 01.683-.926c.62.148.57.678.658 1.135.36 2.074.968 2.63 3.016 2.691h3.278a4.07 4.07 0 003.041-1.345c1.39-1.68 2.036-4.308-1.142-5.654a9.218 9.218 0 00-3.302-.802c-1.49 0-2.769.197-3.476 1.703a1.234 1.234 0 01-.894.716.586.586 0 01-.521-.382c-.075-1.68 1.328-2.79 1.775-4.345-5.524 2.715-9.211 23.18 0 31.5.41.47 1.005.79 1.241 1.444.236.655-.434.618-.633.939.087 1.234 1.242 1.48 1.875 2.123a7.97 7.97 0 004.121 2.184c.472.309.211.778.31 1.111.137-.654-.496-1.678.72-2.036 1.664.185 2.992 1.234 4.519 1.728.695.247 1.341.617 2.048.864a42.141 42.141 0 0031.779 0c1.502-.457 2.805-1.395 4.345-1.753 3.31-1.481 6.496-4.514 9.558-9.097.36 0 .385 1.123.969.42.273-.334.67-1.235.273-1.235-1.242-.222-.373-.79-.249-1.098a28.237 28.237 0 001.875-6.172c.124-.716.409-1.099 1.129-1.086.358.027.711-.088.983-.32.272-.23.441-.56.47-.915a6.62 6.62 0 00-.211-4.209c-.124-.308-.236-.814-.596-.777-1.663.172-1.043-.864-.906-1.617.794-4.197-.919-7.592-3.364-10.789a32.799 32.799 0 00-6.94-6.863 2.16 2.16 0 01-1.005-1.654c-.348-2.839-.981-5.64-1.092-8.504 0-1.123 0-1.938 1.601-1.432a5.49 5.49 0 003.525-.21c-1.539-1.148-3.289-.53-4.829-.876.087-.692.559-.531.919-.531a38.8 38.8 0 008.466-.21c.298 0 .77-.247.757.346-.012.592-.409.259-.657.284a10.52 10.52 0 00-3.799.987c1.713.802 3.141.148 4.605-.136a230.085 230.085 0 003.427 23.613c1.489 7.295 3.6 14.442 4.891 21.787.521 2.913.98 5.838 1.651 8.714a25.978 25.978 0 004.084 8.974c.273.395.484 1.234 1.241.679.757-.556 0-.877-.186-1.235a45.29 45.29 0 01-1.924-5.357 29.023 29.023 0 014.965 4.468 68.788 68.788 0 005.263 5.641 29.329 29.329 0 004.407 3.012 18.58 18.58 0 016.207 5.654 1.44 1.44 0 01.174 1.851c-.534.876-.906 0-1.341 0-.343.03-.687.03-1.03 0-19.862-.086-39.624-.42-59.424 0-15.43.358-30.836 1.37-46.29 1.037-7.449-.16-14.996-.185-22.482-.272a6.426 6.426 0 01-.744 0 2.217 2.217 0 01-1.664-1.172c-.41-.642.323-.95.633-1.321 3.153-3.703 6.306-7.406 9.51-10.998a45.219 45.219 0 018.478-7.147 9.178 9.178 0 012.954-2.358z" fill="#FEFEFE"/><path d="M162.842 43.202c-.248-.765-.434-1.469.472-2.024a1.9 1.9 0 00.769-1.395c.137-1.123.634-1.235 1.664-.938a144.22 144.22 0 0020.122 3.826c7.747 1.148 15.406 2.753 23.053 4.407.682.148 1.03.333 1.017 1.11a24.192 24.192 0 01-1.241 8.419c-.136.358-.186.963-.856.457a15.929 15.929 0 00-8.206-2.753 197.811 197.811 0 01-25.411-4.703 40.18 40.18 0 00-8.515-1.234c-1.813 0-2.284-.827-2.247-2.469l4.63 1.235a4.712 4.712 0 00-3.861-1.876c-1.142-.1-1.626-.482-1.365-1.63.67-.617 1.241 0 1.887.136.885.245 1.749.563 2.582.95a8.91 8.91 0 00-4.494-1.518z" fill="#FEFEFE"/><path d="M44.975 62.742c13.233-8.258 27.471-14.812 40.754-23.54-.15 1.457-.31 2.605-.36 3.766 0 .53-.373.604-.708.79-5.636 3.147-11.06 6.517-16.386 10.072-3.34 2.222-7.287 3.542-10.912 5.345-2.743 1.308-5.313 2.74-7.882 4.22a2.104 2.104 0 01-2.657.063 7.112 7.112 0 00-1.85-.716z" fill="#FCFCFC"/><path d="M74.184 135.371a29.5 29.5 0 01-5.91-.519 23.092 23.092 0 00-5.61-.345 4.403 4.403 0 01-2.648-.584 4.364 4.364 0 01-1.796-2.021c-.584-1.234-.199-1.679 1.08-1.963 5.276-1.234 10.452 0 15.666.507 3.203.308 6.43.407 9.645.444.571 0 1.602-.457 1.651.296a2.187 2.187 0 01-.252 1.493c-.26.452-.671.798-1.163.976a34.942 34.942 0 01-10.663 1.716z" fill="#FDFDFD"/><path d="M181.053 55.755c.074-.407 4.556.605 10.936.222 4.531-.271 8.628-.518 12.501-3.024 4.556-2.95 5.685-6.998 6.442-6.653 1.13.519.422 10.32-5.213 13.578-2.781 1.592-7.697.432-17.541-1.913-1.825-.432-7.212-1.753-7.125-2.21zM50.895 23.131c.087.507 4.594-.543 10.8 0 4.221.334 7.759.63 11.346 2.827 3.588 2.197 5.55 5.222 6.319 4.703.236-.16.136-1.012 0-2.716a10.71 10.71 0 00-.658-3.258 8.353 8.353 0 00-1.005-1.691 11.432 11.432 0 00-2.322-2.383c-2.483-1.814-5.598-1.715-8.193-1.641-1.442.06-2.878.229-4.295.506a60.596 60.596 0 00-7.82 1.95c-2.533.79-4.172 1.395-4.172 1.703z" fill="#F5F7A9"/><path d="M164.319 50.188c8.938-.148 17.156 3.271 25.759 4.765l-25.759-4.765z" fill="#FCFCFC"/><path d="M70.125 53.25c-.199-.37-4.246 1.975-10.552 3.554-4.481 1.124-8.528 2.136-13.034.926-5.3-1.431-7.585-4.937-8.23-4.394-.944.84 2.644 9.998 9.074 11.38 3.178.68 7.61-1.937 16.473-7.17 1.638-.988 6.48-3.889 6.269-4.296zM168.254 129.014c-.136-.864 7.089-1.235 13.767-5.246 7.448-4.481 9.186-10.492 11.061-9.949 1.241.358 2.085 3.419.235 15.75h-20.594c-3.6.037-4.419-.271-4.469-.555z" fill="#F5F7A9"/><path d="M163.761 130.557c5.189.469 9.931.74 14.772.728 4.357 0 8.69-.124 13.059-.556.36 0 .894-.296 1.068.124.173.42-.124.753-.286 1.098a4.018 4.018 0 01-1.248 1.449 4.06 4.06 0 01-1.781.712 54.433 54.433 0 01-19.638.53c-2.495-.382-4.047-2.073-5.946-4.085z" fill="#FCFCFC"/><path d="M37.44 118.14c-.15.333-.298.642-.435.951-1.068 2.407-3.55 2.69-5.214.604-.57-.728-1.055-.641-1.54.111a3.193 3.193 0 01-1.721 1.608 3.217 3.217 0 01-2.362-.003 1.876 1.876 0 01-1.192-.687 1.86 1.86 0 01-.397-1.313c.074-1.37 0-2.752 0-4.098a12.517 12.517 0 00-.857 4.629 2.457 2.457 0 01-.461 1.783c-.38.513-.944.861-1.575.97a3.396 3.396 0 01-2.174-.158 3.372 3.372 0 01-1.624-1.447c-.82-1.333-.472-2.777-.67-4.209a12.496 12.496 0 00-.981 4.271c-.1.901-.087 1.851-1.167 2.16a2.823 2.823 0 01-3.054-.555 2.844 2.844 0 00-2.557-.914 7.824 7.824 0 01-5.3-1.95c-.77-.654-1.465-1.432-2.26-2.086a5.908 5.908 0 01-1.37-2.008 5.868 5.868 0 01-.442-2.386c-.335-4.074.198-7.258 3.202-8.74 1.9-.987 2.918-2.765 4.42-4.085a28.686 28.686 0 003.14-2.864c1.242-1.432 2.992-2.382 3.724-4.27.142-.37.382-.695.696-.939a18.964 18.964 0 003.624-4.58 20.925 20.925 0 002.123-4.566c.546-1.358.708-2.63 2.21-3.26.174-.073.198-.64.21-.974.018-.64.202-1.266.535-1.815a14.843 14.843 0 001.34-5.122c.385-1.926 0-4.074 1.304-5.777a1.144 1.144 0 00.111-1.32c-.819-1.988-.173-3.148 1.95-3.704a.41.41 0 00.38-.29.405.405 0 00-.157-.45c-2.011-1.235-.832-2.728-.224-4.061a6.31 6.31 0 00.422-2.086c.286-2.617.745-5.21 1.242-7.79.124-.703.745-.666 1.316-.382a15.97 15.97 0 002.669 1.086c-.696-.752-1.39-1.493-2.073-2.258a3.763 3.763 0 01-1.14-2.903 3.749 3.749 0 011.45-2.763 8.403 8.403 0 001.415-1.74 6.402 6.402 0 013.513-2.605 1.428 1.428 0 001.13-1.308 95.997 95.997 0 012.482-9.43 10.112 10.112 0 011.936-3.92 10.18 10.18 0 013.415-2.746 155.15 155.15 0 0118.322-7.122c10.068-3.494 20.607-5 30.923-7.406A106.8 106.8 0 01125.378.1c19.117.888 37.874 3.838 56.035 10.134 6.517 2.258 12.848 4.937 19.092 7.825.307.159.552.415.695.729a93.27 93.27 0 019.385 21.045c1.241 4.518 1.986 9.184.807 13.887-.048.242-.11.48-.187.715-2.482 6.617-4.468 7.752-12.674 7.036a7.192 7.192 0 01-2.296-.58c-6.791-3.073-14.226-3.394-21.389-4.937-2.818-.593-5.661-1-8.491-1.506-.819-.148-1.241-.21-1.006.95 1.242 5.135 2.371 10.282 3.514 15.442a3.44 3.44 0 001.44 2.123 118.186 118.186 0 0114.077 12.344c.82.86 1.776 1.58 2.83 2.135 1.717.907 3.2 2.197 4.333 3.769a12.506 12.506 0 012.196 5.291 56.799 56.799 0 011.006 17.528c-.435 4.542.273 9.085 0 13.578-.075.987-.137 1.974-.273 2.95-.435 3.332-1.974 5.097-5.288 5.69a54.941 54.941 0 01-17.057.148c-1.477-.197-2.929-.543-4.394-.753a6.676 6.676 0 01-3.25-1.387 6.62 6.62 0 01-2.076-2.847 1.973 1.973 0 00-1.7-1.308 60.568 60.568 0 00-18.223-.593 50.544 50.544 0 01-9.931 0 51.634 51.634 0 00-12.302.704c-6.207 1.062-12.414.753-18.621.592-3.922-.098-7.845-.074-11.768-.16-.993 0-1.49.198-1.7 1.234a4.926 4.926 0 01-1.463 2.8 4.973 4.973 0 01-2.87 1.348c-8.007 1.074-16.026 1.419-23.933-.766-3.265-.901-4.159-2.715-3.34-6.023a8.597 8.597 0 00.199-2.321c-.112-3.703-.273-7.406-.422-11.109 0-.74 0-1.123-1.241-1.16-1.54 0-2.396.16-3.054 1.58a1.438 1.438 0 01-.828.623 1.451 1.451 0 01-1.034-.092 1.517 1.517 0 00-1.816.057c-.17.135-.309.305-.406.498-.919 1.136-2.247.753-3.39.21-.57-.272-.88-.358-1.377.185-1.9 2.098-2.954 2.185-5.313.568a3.461 3.461 0 00-.435-.136zm94.02-93.28a20.562 20.562 0 00-5.102-.863 50.26 50.26 0 00-15.802 1.394 23.464 23.464 0 00-12.811 8.11c-.435.543-.894 1.296-1.664.716-.77-.58.075-1.234.398-1.703a15.646 15.646 0 013.314-3.58 3.414 3.414 0 001.353-2.469 50.157 50.157 0 00-.484-8.998c0-.432-.211-.765-.745-.728-2.93.185-5.847-.284-8.776-.272-.77 0-1.13.296-1.242 1.136-.26 3.444-.509 6.887-.918 10.319-1.378 12.096-3.265 24.131-4.568 36.265a39.927 39.927 0 01-3.849 14.503 17.76 17.76 0 01-3.401 4.827c-.348.32-.708.592-1.18.284-.471-.309-.148-.766.075-1.124.447-.716.919-1.407 1.328-2.135a26.187 26.187 0 003.092-7.406 25.595 25.595 0 01-3.973 3.073 37.45 37.45 0 00-7.622 6.37c-3.426 3.838-6.74 7.776-10.142 11.627-.707.802-.509 1.234.273 1.74.46.288.998.426 1.54.396 7.448.074 14.797.11 22.195.259 15.542.333 31.034-.667 46.589-1.037 19.861-.47 39.624-.136 59.424 0a11.6 11.6 0 011.241.086c.459 0 .906.642 1.353-.172a1.35 1.35 0 00-.186-1.667 18.506 18.506 0 00-6.418-5.85 26.115 26.115 0 01-7.696-6.493 44.408 44.408 0 00-5.4-5.505 2.487 2.487 0 00-1.428-.828 46.468 46.468 0 001.937 5.234c.149.358.657.802.099 1.16-.559.358-.869-.21-1.13-.592a25.216 25.216 0 01-4.158-9.344c-1.689-8.418-3.228-16.849-5.338-25.18a189.485 189.485 0 01-4.444-27.44c-.1-.975-.186-1.42-1.353-1.012a3.62 3.62 0 01-3.24-.136 8.923 8.923 0 013.463-.988c.273 0 .832.223.745-.37-.087-.592-.559-.284-.857-.234-2.609.343-5.247.409-7.87.197-.434 0-.981-.222-1.39.457 1.601.42 3.302-.16 4.965.925a5.702 5.702 0 01-3.513.235c-1.514-.457-1.688.309-1.638 1.469.111 2.814.732 5.567 1.08 8.356a2.33 2.33 0 001.08 1.79 31.964 31.964 0 016.926 6.876c2.384 3.172 4.134 6.517 3.327 10.664-.161.815-.633 1.765.931 1.728.385 0 .509.556.646.926a6.625 6.625 0 01.174 3.938c-.162.716-.522 1.234-1.391 1.234s-1.08.42-1.241 1.234a24.955 24.955 0 01-2.011 6.333c-.199.395-.472.715.323.876.459.099 0 .679 0 1.024 0 .346-.373.655-.621.37-.795-.913-.894.075-1.093.396a23.29 23.29 0 01-6.455 6.678 39.567 39.567 0 01-21.86 6.727c-11.11.333-20.805-3.605-29.495-9.974a15.433 15.433 0 01-6.306-8.751 33.7 33.7 0 01-1.043-13.035 22.96 22.96 0 014.569-11.393c.397-.494.794-1.234 1.539-.753.745.482 0 1.05-.236 1.469a30.766 30.766 0 00-2.905 6.628c-2.83 9.616-.496 16.281 7.734 21.984a41.708 41.708 0 0030.537 6.974 31.913 31.913 0 0014.524-5.283 26.595 26.595 0 008.342-9.665 18.15 18.15 0 01-6.566-1.135 7.955 7.955 0 011.948 3.431c.745 2.926-1.514 5.962-4.208 5.58a10.798 10.798 0 01-4.047-1.408 4.76 4.76 0 01-1.936-1.882 4.715 4.715 0 01.348-5.15 4.763 4.763 0 012.172-1.608 5.653 5.653 0 013.724-.235l-1.167-1.604a2.624 2.624 0 01-.495-1.456 2.625 2.625 0 01.408-1.482c.497-.963 1.428-.444 2.148-.383 2.623.207 5.225.62 7.783 1.235 1.912.444 2.793-.16 3.116-2.074.337-2.256.12-4.56-.633-6.715-1.751-5.48-5.487-9.27-10.378-12.084a38.726 38.726 0 00-14.338-5.036zm59.077 72.32h-26.528c-21.103.161-42.095.52-63.136 1.235-14.45.531-28.911-.136-43.386-.617 0 .087.211.21.435.321.546.272 1.601.383 1.39 1.025-.21.641-1.105 0-1.7 0-.075 0-.137.098-.298.234l2.271 1.383c-.596.543-1.13.283-1.638.197-.236 0-.534-.457-.67.062-.137.518.186.481.483.617.298.136 1.03.271 1.242.778-.335.407-.695.308-1.03.308-.336 0-.72-.222-.795.346-.074.568.26.518.584.691a5.534 5.534 0 002.246.679c2.574.132 5.152.271 7.734.42.484 0 1.241-.26 1.241.555 0 .815-.583.913-1.24.876-2.98-.123-5.96-.209-8.926-.407-1.701-.111-1.726-.197-1.502 1.506.803 6.17 1.068 12.398.794 18.614-.087 2.012.112 2.209 2.135 2.16 6.8-.179 13.605.015 20.383.58 4.097.333 8.181 1.123 12.315.605a80.22 80.22 0 0115.157-.346c3.965.25 7.944.151 11.892-.296a173.584 173.584 0 0125.858-1.148c15.231.593 30.438 1.654 45.682 1.617 1.117 0 1.576-.148 1.465-1.419-.46-5.468-.584-10.937-.547-16.429v-5.481c0-.617 0-.901-.819-.691-2.365.57-4.791.856-7.225.851-10.824.371-21.649.297-32.461.284-.397 0-1.155.358-1.167-.432-.013-.79.695-.666 1.241-.716a311.74 311.74 0 0123.35-1.098c4.618 0 9.236.099 13.854.148 2.358 0 3.637-1.481 2.917-3.493a6.33 6.33 0 01-4.444 1.753c-.36 0-.77-.136-.794-.519-.025-.382.471-.37.769-.42a8.71 8.71 0 003.873-1.394c1.006-.716 1.068-.988.199-2.148.161.469.571.926-.099 1.333a3.38 3.38 0 01-3.377.53c.782-.58 1.701-.493 2.321-1.16-.521-.197-1.08.173-1.427-.271.211-.642.968-.519 1.365-1.234l.013.012zM78.392 30.293a20.46 20.46 0 01-9.856 5.073 20.497 20.497 0 00-8.504 4.419c-.496.42-1.03 1.024-1.614.308-.583-.715 0-1.32.646-1.752 1.465-.914 2.905-1.901 4.394-2.778A61.292 61.292 0 0174.283 30.7c2.048-.716 4.22-1.42 3.985-4.296a.96.96 0 01.198-.555c.497-.728 0-1.037-.558-1.234a8.98 8.98 0 01-.944-.432c-.198-.111-.521-.185-.447-.506.075-.321.447-.321.733-.297.285.025.583 0 .695.186.931 1.234 1.788.555 2.719 0a3.99 3.99 0 012.16-.482 26.637 26.637 0 003.835-.271c.907-.111 1.018-.47 1.08-1.235.187-1.913.422-3.826.646-5.74.248-2.147.931-2.85 3.09-2.876 3.08 0 6.208.1 9.237.1.956 0 1.241.419 1.464 1.234a29.795 29.795 0 011.018 7.406c0 1.11.311 1.333 1.366 1.123a33.487 33.487 0 003.823-.506c1.453-.482 2.62.543 3.985.383a60.051 60.051 0 0115.294-.346c2.755.274 5.532.24 8.28-.099a42.256 42.256 0 017.559-.346c.398 0 .994.482 1.155-.123a4.211 4.211 0 00-.075-1.9c-.136-.655-.707-.334-1.117-.31-3.717.284-7.446.362-11.172.235-.385 0-1.08.185-1.043-.444.037-.63.72-.346 1.105-.333a73.666 73.666 0 009.223-.321c.931-.087 2.073.098 2.744-.37.67-.47.198-1.766.521-2.655a7.37 7.37 0 00.286-1.296c.161-1.012.682-1.432 1.762-1.58a63.32 63.32 0 0110.105 0c1.043 0 1.341.68 1.477 1.519.335 2 .72 3.987.969 5.986.111.926.273 1.333 1.402 1.235a3.169 3.169 0 012.45.791 3.14 3.14 0 011.039 2.344 38.21 38.21 0 01.508 10.615 1.233 1.233 0 001.081 1.568 106.46 106.46 0 0013.555 3.382c7.448 1.296 15.008 1.518 22.345 3.259.856.197.98-.136.931-.914a8.195 8.195 0 01.571-4.468 16.46 16.46 0 01.223 4.937c0 .556.112.79.658.889.819.148.596-.47.646-.84a15.129 15.129 0 000-3.838c-.087-.827-.087-1.654-.137-2.555.571.197.559.53.633.802.542 1.909.622 3.918.236 5.863-.199 1.025.509 1.037 1.142 1.086.993.074.484-.666.447-1.024a40.478 40.478 0 00-4.208-13.48 10.668 10.668 0 00-3.669-4.641 10.754 10.754 0 00-5.592-1.987 8.319 8.319 0 01-3.774-1.123 4.844 4.844 0 013.315 0c3.997.778 7.709 2.098 9.807 5.95 2.718 5.011 4.965 10.208 4.965 16.046 0 .914.608.778 1.08.827.72.074.447-.518.397-.827a27.103 27.103 0 00-.496-2.913c-1.899-7.764-5.76-14.664-9.584-21.576a1.923 1.923 0 00-1.166-.827l-7.895-3.05c-8.69-3.332-17.38-6.763-26.479-8.862a225.965 225.965 0 00-26.788-3.925 129.025 129.025 0 00-29.123.136 209.74 209.74 0 00-24.293 4.505c-12.91 3.123-25.82 6.172-37.65 12.578a3.25 3.25 0 00-1.701 1.864 112.62 112.62 0 00-5.127 19.75 24.554 24.554 0 00-.584 7.406c2.048-1.445 3.935-2.802 5.835-4.098.521-.358 1.13-1.136 1.762-.272.633.864-.235 1.234-.72 1.691a16.675 16.675 0 01-5.76 3.53 1.331 1.331 0 00-.914.607 1.318 1.318 0 00-.14 1.084 20.846 20.846 0 003.4 8.283c.72 1.05 1.242 1.234 2.483.543 12.066-6.937 24.27-13.578 36.223-20.774 1.242-.765 2.62-1.457 4.11-2.284a13.368 13.368 0 01-6.493-7.32zM35.577 64.853c1.242.58 2.061 1.235 1.676 2.63a2.6 2.6 0 01-.797 1.574 2.626 2.626 0 01-1.623.71c2.482 1.06 2.085 2.702 1.24 4.467a.885.885 0 000 .433c.25 2.542-1.24 4.628-2.01 6.875-.484 1.395-1.242 2.863-1.775 4.221-.745 2.062-2.408 3.641-2.719 5.888-.136 1-1.452 1.358-1.887 2.469-.434 1.11-1.812 2.061-2.06 3.53 0 .185-.323.383-.547.469a1.949 1.949 0 00-1.24 1.358c-.746 2.407-2.682 3.95-4.482 5.406a14.17 14.17 0 00-3.799 4.481c.807-.383 1.366-.679 1.95-.926.582-.247 1.34-.358 1.725.333.57 1.05 1.08.593 1.7.087a3.737 3.737 0 014.668-.235c.31.185.397.26.67 0a3.618 3.618 0 014.966-.827c.509.272 1.24.617 1.502.222 1.154-1.542 2.78-1.234 4.32-1.234a1.087 1.087 0 00.906-.407 2.637 2.637 0 013.227-.691c.447.135.882.604 1.39.271 2.049-1.395 4.718-.37 6.84-1.851 1.242-.84 3.042-.667 3.824-2.333a1.66 1.66 0 01.881-.753c.745-.259.844-.741.907-1.444.07-2.352.815-4.635 2.147-6.58a120.99 120.99 0 0123.66-22.86 2.017 2.017 0 00.845-1.42c.782-4.764 1.6-9.528 2.333-14.305.435-2.802.708-5.629 1.055-8.443a13.127 13.127 0 01-4.63 3.036 36.953 36.953 0 00-9.434 4.938c-5.735 3.703-12.017 6.505-17.85 10.06a9.11 9.11 0 01-8.256.654 12.546 12.546 0 01-5.4-3.925c-.645 2-2.37 2.826-3.923 4.135v-.013zm127.861-18.947c.323 2.222.323 2.197 2.222 2.395a63.65 63.65 0 018.689 1.333 198.404 198.404 0 0025.399 4.678 15.885 15.885 0 017.944 2.605c.844.617.857-.087 1.031-.556a23.342 23.342 0 001.241-7.838c0-.963-.273-1.333-1.241-1.555-6.778-1.482-13.581-2.864-20.433-3.987-7.721-1.235-15.53-2.074-23.065-4.32-.596-.173-.794 0-.931.518a3.58 3.58 0 01-1.167 2.172.96.96 0 00-.422 1.123c.162.692.646.42 1.043.47a7.269 7.269 0 014.481 1.888l-.161.383-4.965-1.703c.111 1.493.111 1.493 1.353 1.69a7.021 7.021 0 014.096 1.79 36.596 36.596 0 01-5.127-1.073l.013-.013zm-118.463 16.8c.652.171 1.281.42 1.874.74a2.069 2.069 0 002.483 0 148.398 148.398 0 018.044-4.332c3.587-1.79 7.448-3.086 10.787-5.283 5.375-3.555 10.8-6.974 16.436-10.085.322-.185.72-.247.745-.778.062-1.16.21-2.308.347-3.801-13.27 8.776-27.484 15.256-40.717 23.539zm48.487-1.235a8.348 8.348 0 001.688 2.716 35.007 35.007 0 0015.157 10.06c10.167 3.703 20.334 3.172 30.414-.519 8.193-3 13.444-8.554 15.256-17.28a6.892 6.892 0 00-1.067 2.11c-4.308 8.64-11.843 12.85-20.868 14.812-5.437 1.235-10.936.729-16.411 0-9.409-1.222-17.912-4.246-24.169-11.911v.012zm-19.365 73.851h1.639a34.276 34.276 0 008.888-1.617c.856-.284 1.961-1.851 1.65-2.468-.397-.84-1.24-.334-1.849-.334-3.227 0-6.443-.136-9.658-.456-5.164-.519-10.303-1.667-15.517-.494-1.241.284-1.626.851-1.03 2.024a4.403 4.403 0 001.834 1.993 4.436 4.436 0 002.66.55 22.751 22.751 0 015.623.358c1.899.348 3.83.492 5.76.432v.012zm133.496-76.9a36.927 36.927 0 00-9.049-2.468c-5.413-.667-10.862-1.16-16.138-2.728a83.343 83.343 0 00-17.379-3.21c-.273 0-.671-.37-.795.26-.073.52.052 1.05.351 1.483.298.434.749.741 1.263.862 2.061.321 4.121.58 6.207.95 8.528 1.531 17.18 2.47 25.448 5.308a13.726 13.726 0 0010.092-.456zm-43.733 72.16c1.849 2.099 3.513 3.703 6.07 4.074a55.246 55.246 0 0019.229-.543 4.33 4.33 0 001.888-.691 4.278 4.278 0 001.364-1.47c.186-.345.459-.753.273-1.11-.186-.358-.72-.173-1.08-.136-6.376.567-12.783.712-19.179.432-2.768-.087-5.474-.296-8.565-.556zM85.977 36.167c.385-3.049.732-5.826 1.08-8.64.099-.778.161-1.568.273-2.346.112-.777-.273-.765-.795-.678-1.018.16-2.048.333-3.066.53-1.85.358-3.153.852-3.488 3.271a3.794 3.794 0 00.139 2.316c.287.739.798 1.37 1.462 1.807a35.805 35.805 0 014.395 3.74zm58.344 27.255c2.482 0 3.513-.766 3.798-2.79.36-2.567-2.88-5.752-5.474-5.32a3.873 3.873 0 00-2.109.84 3.839 3.839 0 00-1.268 1.876c-.509 1.678 0 2.85 1.54 4.098a5.505 5.505 0 003.575 1.296h-.062zm17.64-24.589a8.932 8.932 0 001.899-5.702 41.43 41.43 0 00-1.676-8.826c-.186-.666-1.241-.765-1.825-.605-.583.16-.198.84-.186 1.235.052.687.143 1.371.273 2.049.559 3.875.757 7.739 1.577 11.85h-.062zm-142.82 78.344a9.409 9.409 0 00.324 2.778c.285.95 1.042.95 1.8.839.757-.111.93-.617.856-1.308a11.924 11.924 0 012.06-8.271c.671-.999.15-1.308-.769-1.407a1.89 1.89 0 00-1.44.642 8.56 8.56 0 00-2.172 3.049 8.51 8.51 0 00-.658 3.678zm139.753-65.988a10.74 10.74 0 01-10.34.778 15.408 15.408 0 00-1.788-.704c-.459-.123-1.154-.284-1.365.148-.211.432.273 1 .757 1.235a14.843 14.843 0 0010.725 1.752c2.011-.431 2.073-.69 2.011-3.209zM26.366 117.585v.592c0 .728-.186 1.568.969 1.605 1.154.037.993-.704 1.13-1.407.496-2.568 1.03-5.123 1.551-7.678.124-.592.596-1.308-.347-1.617a1.34 1.34 0 00-1.148.052 1.321 1.321 0 00-.677.923 26.664 26.664 0 00-1.478 7.53zm7.15-1.37v1.765c0 .53-.111.987.609 1.123s.931-.284 1.13-.839a24.185 24.185 0 001.377-8.246c0-.518.31-1.37-.496-1.469a1.382 1.382 0 00-1.664 1.235 64.092 64.092 0 00-.955 6.431zm13.929-5.456a7.72 7.72 0 00-.273-2.333 1.847 1.847 0 00-.873-1.355 1.878 1.878 0 00-1.61-.163c-.546.111-.67.296-.385.777a8.448 8.448 0 01.521 7.11c-.235.815.236 1.062.795 1.308.559.247.98-.135 1.154-.715.463-1.501.71-3.06.733-4.629h-.062zm-6.778 6.628a6.949 6.949 0 002.468-3.433 6.914 6.914 0 00.015-4.22 3.708 3.708 0 00-1.676-1.999c-.422-.247-.931-.679-1.353-.408-.422.272-.248.963 0 1.37a13.03 13.03 0 01.608 8.678l-.062.012zm-22.804-6.69c-1.961.79-3.724 1.703-4.258 3.999a32.25 32.25 0 00-.943 5.036 1.46 1.46 0 00.471 1.469c.534.358 1.155.58 1.242-.419.372-3.617 1.117-7.11 3.488-10.085zm38.16 1.049c-.125-1.419-.236-2.839-.385-4.258a3.55 3.55 0 00-1.066-1.771 3.582 3.582 0 00-1.876-.883c-.286 0-.596 0-.82.222-.223.222 0 .543.174.765a8.24 8.24 0 011.602 5.111c.003.537.177 1.06.496 1.493.41.568.87.21 1.328.173.46-.037.584-.432.547-.852zM37.91 57.608c0-1.975-.695-3.012-2.383-3.481a17.162 17.162 0 01-3.091-1.407c-.609-.309-1.242-.42-1.465.308-.224.729-.67 1.617.36 2.037a143.17 143.17 0 006.58 2.543zm-26.54 53.719a14.187 14.187 0 00-6.716 4.999.835.835 0 000 1.234 9.137 9.137 0 002.483 2.148 11.18 11.18 0 011.194-4.651 11.238 11.238 0 013.039-3.73zm39.339 3.579a8.367 8.367 0 00-.472-8.344.913.913 0 00-.59-.534.925.925 0 00-.788.127c-.708.321-.385.79-.186 1.234a10.008 10.008 0 01.881 5.48c-.088.421-.02.86.193 1.234.213.375.554.66.962.803zm-12.998-55.2c.236-.728-.285-.876-.88-.963a18.889 18.889 0 01-5.413-1.555c-.857-.407-1.105-.062-1.39.63-.286.69 0 1.012.732 1.234a25.32 25.32 0 014.965 1.9c1.453.667 1.85.433 1.986-1.246zm-14.598 22.75a18.842 18.842 0 015.884 4.937c.186.234.348.271.596 0a1.642 1.642 0 00.521-1.198 1.633 1.633 0 00-.521-1.197 39.587 39.587 0 01-3.103-2.469c-1.08-1.061-2.049-.74-3.377-.074zm7.82 1.48c.944-1.086.857-1.9-.198-2.703-1.241-.987-2.483-2.049-3.786-3.098-.422-.358-.844-.827-1.241 0-.31.568-.646 1.123.21 1.605a18.175 18.175 0 015.016 4.196zm106.969-59.619c2.483 1.037 4.965 2.037 7.448 3.198-.099-.951-.223-1.68-.248-2.47-.025-.79-.373-1.234-1.242-1.098-2.011.235-3.984.272-5.958.37zM33.839 76.95c.832-1.728.733-2.11-.732-2.79a50.98 50.98 0 01-4.804-2.567c-.298-.185-.608-.679-1.006-.309-.397.37-.124.741-.111 1.136.012.395.372.74.831.901a14.908 14.908 0 015.822 3.629zm.46-4.073c.322 0 .372-.21.422-.408a.946.946 0 00-.447-1.123c-1.7-1.234-3.377-2.469-5.077-3.617-.335-.234-.683-.851-1.068-.481-.306.439-.49.95-.534 1.481-.124.556.385.617.733.753 1.929.79 3.754 1.81 5.437 3.037.174.135.385.308.534.308v.05zm-6.927 18.317c1.043-1.11 1.241-1.69.707-2.296-1.412-1.524-3-2.88-4.73-4.036-.657-.444-1.017 0-1.315.47-.298.468 0 .777.484.974a8.62 8.62 0 012.941 1.94 8.561 8.561 0 011.913 2.948zm7.312-23.86c.285 0 .62.16.72-.246.099-.408-.286-.445-.522-.593-1.812-1.074-3.848-1.814-5.722-2.777-.807-.408-.994 0-.87.679a1.722 1.722 0 00.894 1.234 16.2 16.2 0 005.5 1.703zM25.77 93.503c.36-.383.62-.741.397-1.235a9.15 9.15 0 00-4.519-4.332c-.596-.284-.745.246-1.005.58-.26.333-.298.691.174.938a19.243 19.243 0 014.953 4.06v-.011zm-2.086 3.394a1.737 1.737 0 00.335-2.21 15.014 15.014 0 00-3.885-3.616c-.497-.358-.969 0-1.242.383-.273.382.137.617.373.802a18.929 18.929 0 014.42 4.641zm8.69-16.256c.993-1.765 1.018-1.803.26-2.407a32.634 32.634 0 00-4.965-3.259c-.31-.16-.708-.58-.956 0s-.31.926.348 1.234c2.19.904 4.052 2.45 5.338 4.432h-.025zM22.009 99.156c.062-.753.646-1.235.162-1.716a88.925 88.925 0 00-4.47-3.888c-.583-.482-.98.086-1.328.506-.347.42 0 .778.373 1a26.213 26.213 0 015.288 4.135l-.025-.037zm15.232-46.078c0-1.926 0-1.901-1.502-2.568-1.043-.444-2.048-.962-3.079-1.431-.298-.136-.695-.642-.906 0-.124.42-.472.925.211 1.234 1.726.926 3.463 1.827 5.276 2.765zm-26.69 47.695c-.384 0-.57.099-.67.37-.1.272.137.395.36.457a9.93 9.93 0 015.102 3.394c.385.482.646.223.956 0 .31-.222.658-.481.199-.938a12.561 12.561 0 00-5.947-3.283zm3.427-3.469a11.588 11.588 0 015.61 3.703c.373.482.659.457 1.068.087.41-.371 0-.716-.285-1.012a33.926 33.926 0 00-4.457-3.333c-.856-.58-1.353-.47-1.936.568v-.013zm76.244-82.33v.345c.112.062.224.185.335.198l9.199.493c.347 0 .72.062.695-.481-.025-.543-.248-.716-.745-.691-.993 0-1.974.123-2.967.136-2.184.012-4.345 0-6.517 0zM9.931 109.746c-3.724-.507-5.338 2.049-7.1 4.468a1.235 1.235 0 00-.378 1.087 1.23 1.23 0 00.688.925c.88-3.678 3.364-5.616 6.79-6.48zm136.997-94.465c.087.346.347.333.595.309 2.756-.26 5.525-.247 8.293-.284.323 0 .918.222.931-.37.012-.593-.596-.519-1.006-.494-2.619.136-5.226.271-7.833.444-.36.025-.819-.074-.98.395zM14.561 106.624a11.628 11.628 0 00-5.76-3.444c-.881-.259-1.39.074-1.787.95a17.683 17.683 0 017.535 2.481l.012.013zm-2.93 7.788c-1.24 1.371-2.296 2.469-2.482 4.16-.062.444-.435 1.234.422 1.296a1.243 1.243 0 001.34-.913c.261-1.432.435-2.926.72-4.543zm20.955-3.443c0-.272.149-.63-.273-.729-.423-.098-.559.26-.609.63-.26 1.802-.534 3.604-.782 5.406 0 .334-.31.864.348.901.658.037.658-.333.683-.79.08-1.819.291-3.63.633-5.418zm5.412-73.938c-1.03.95-2.309 1.136-2.768 2.395a.995.995 0 00.21 1.234c.36.346.61-.11.907-.197 1.651-.543 1.415-1.938 1.651-3.432zm-2.222 9.418l.41-.358a30.229 30.229 0 00-2.57-4.715c-.335.704-1.378 1.012-.633 1.913.894 1.062 1.85 2.099 2.793 3.148v.012zm-.732 16.047L31.58 61.41c-.26-.087-.633-.272-.745.123-.111.395-.236.765.273 1.012 1.267.58 2.52 1.506 3.936-.086v.037zM12.624 99.23a9.17 9.17 0 015.04 3.826c.249.408.46.42.795.087.335-.333.211-.667-.137-.963a18.952 18.952 0 00-3.798-2.543c-.571-.284-1.105-.814-1.9-.407zm26.504 17.725c.325-1.716.21-3.487-.336-5.147.398 1.58-1.551 3.296.336 5.147zm66.549-92.02c-2.929-.47-2.929-.47-2.632 1.543l2.632-1.543zM1.998 110.919c1.093-.876 2.272-1.604 3.365-2.469-1.291.63-2.88.766-3.365 2.469z" fill="#000"/><path d="M128.866 107.166c-2.843-.136-6.753-.309-10.664-.531-.459 0-1.241.284-1.241-.568 0-.851.794-.568 1.241-.568 7.995 0 15.977-.185 23.959-.604.893.009 1.785-.086 2.656-.284a3.419 3.419 0 012.061 0c.546.185 1.241.407 1.241 1.098 0 .889-.844.654-1.378.704-5.586.555-11.197.691-17.875.753zM98.713 106.363H85.17c-.41 0-1.142.334-1.18-.444-.036-.778.621-.666 1.118-.679 8.18-.086 16.349-1.234 24.542-.358 1.03.111 2.073.185 3.103.358.422.074 1.179-.074 1.08.679-.074.556-.683.444-1.117.457-2.681.074-5.363.16-8.032.197h-5.958l-.013-.21zM74.482 104.697c1.834.04 3.658.284 5.437.728.335.087.782.099.82.494a.836.836 0 01-.671.877 16.45 16.45 0 01-8.938-.642.533.533 0 01-.343-.269.517.517 0 01-.017-.435.925.925 0 01.881-.679l2.83-.074zM190.065 119.546c.13 2.531.084 5.067-.136 7.592 0 .382.211 1.049-.472 1.024-.472 0-.422-.605-.397-.987a120.93 120.93 0 00-.211-14.183c0-.42-.149-1.086.409-1.111.559-.025.435.667.46 1.074.111 2.16.211 4.369.347 6.591zM64.104 124.94c0 .087.161.544-.323.593-.484.049-.46-.432-.496-.741a74.586 74.586 0 01-.286-2.913c0-.321-.124-.79.348-.827.471-.037.459.408.484.741.1.975.174 1.938.273 3.147zM187.172 113.56a5.842 5.842 0 01.497 4.246 5.27 5.27 0 01-.497-4.246zM63.148 110.548c.066.234.108.474.124.716 0 .716.236 1.469-.273 2.111a.428.428 0 01-.372 0 3.218 3.218 0 010-2.469c.012-.123.074-.333.521-.358zM187.247 97.81c.36.135.919.086.919.58 0 .69-.646.592-1.093.617-.447.024-.906-.111-.918-.519.049-.678.707-.481 1.092-.679zM62.068 114.646c0 .346.124.889-.31.864-.72 0-.608-.753-.633-1.234-.025-.482-.087-.988.397-.914.683.099.372.852.546 1.284zM185.658 100.5c-.434-.086-1.005 0-.98-.63.024-.629.571-.468.931-.48.36-.013.98 0 .955.617-.024.617-.571.395-.906.493zM184.528 101.796c0 .507-.36.605-.695.642-.335.037-1.055 0-1.154-.567 0-.395.422-.47.745-.519a1.038 1.038 0 011.104.444zM61.484 108.203c.125.335.212.683.261 1.036 0 .519.323 1.074-.136 1.531a.42.42 0 01-.41 0c-.521-.481-.298-1.098-.224-1.654.025-.247.224-.494.51-.913zM189.531 108.252c-.087.42.311 1.049-.385 1.086-.695.037-.521-.58-.508-.987.012-.408.086-1.049.558-1.037.733 0 .273.629.335.938zM188.203 121.151c-.174.37.161 1.099-.41 1.111-.571.012-.509-.728-.484-1.16.025-.432 0-1.087.534-1.037.534.049.248.703.36 1.086zM131.46 24.86c3.724 1.95 3.414 3.616 2.173 6.344-.596 1.309-.323 1.654.943 1.975a6.441 6.441 0 01.124-1.827 4.557 4.557 0 011.931-2.62 4.603 4.603 0 013.196-.675 7.467 7.467 0 014.966 2.468 2.736 2.736 0 01-.274 4.27 7.488 7.488 0 01-5.561 1.642c.669.992 1.51 1.857 2.483 2.556.57.353 1.035.85 1.349 1.439.314.59.465 1.252.438 1.918a37.837 37.837 0 01-.819 7.011 10.769 10.769 0 01-2.385 5.196 10.862 10.862 0 01-4.715 3.26 32.157 32.157 0 01-14.897 2.407 8.422 8.422 0 00-1.452 0 9.101 9.101 0 014.171 2.937 4.474 4.474 0 01-.066 5.533c-.418.52-.947.94-1.548 1.232a9.533 9.533 0 01-9.931-1.667c-2.036-2.049-.881-6.172 2.086-7.53a12.225 12.225 0 013.724-.727 21.547 21.547 0 01-6.753-2.568 10.219 10.219 0 01-4.506-6.172c-1.428-4.764-1.751-9.368 1.464-13.973a6.525 6.525 0 01-7.113-1.16c-2.01-1.777-1.65-3.987.832-5.073a11.25 11.25 0 001.366-.876 5.082 5.082 0 016.389.435 5.027 5.027 0 011.27 1.898c.125.268.233.544.322.827.1.345.249.518.621.296.373-.222.571-.395.224-.79a4.835 4.835 0 01-.522-.716 3.987 3.987 0 011.44-5.715 10.58 10.58 0 014.469-1.506 3.833 3.833 0 013.273.906 3.771 3.771 0 011.246 3.143c0 .58-.447 1.345.844 1.32 1.291-.024.968-.456.931-1.234-.062-1.506 1.514-3.234 3.476-3.802a10.507 10.507 0 014.853-.345l-.062-.037zm-8.689 30.6c4.608.109 9.165-.98 13.22-3.16a8.757 8.757 0 003.103-2.501 8.7 8.7 0 001.664-3.61 8.077 8.077 0 00-1.75-7.073 17.046 17.046 0 00-7.299-5.32c-7.113-2.814-14.053-2.234-20.309 2.679a9.888 9.888 0 00-3.46 4.268 9.822 9.822 0 00-.637 5.446c.658 4.135 3.501 6.629 7.374 7.925a24.644 24.644 0 008.057 1.345h.037zm-5.71 14.157a13.418 13.418 0 003.724-.568 3.78 3.78 0 002.292-2.841 3.756 3.756 0 00-1.2-3.442 7.726 7.726 0 00-6.989-1.395 3.842 3.842 0 00-2.416 1.395c-.6.75-.894 1.698-.824 2.654.087 2.395.981 3.432 3.377 3.962a7.299 7.299 0 002.036.235zm-12.166-32.87a6.788 6.788 0 002.88-.396 2.796 2.796 0 001.36-.82 2.77 2.77 0 00.688-1.426 4.306 4.306 0 00-1.177-2.597 4.352 4.352 0 00-2.547-1.304 8.204 8.204 0 00-5.35 2.234 1.572 1.572 0 00-.372 2.123c.98 1.84 2.656 2.222 4.518 2.185zm34.758-7.728a3.74 3.74 0 00-2.828.912 3.687 3.687 0 00-1.256 2.68 3.6 3.6 0 00.474 1.358 3.633 3.633 0 002.278 1.675c.473.114.964.132 1.444.053 1.257-.255 2.467-.7 3.588-1.32.327-.135.614-.351.834-.627a2.051 2.051 0 00-.276-2.842 5.924 5.924 0 00-4.258-1.889zm-19.241.013a2.976 2.976 0 00-.967-2.35 3.005 3.005 0 00-2.434-.76 8.012 8.012 0 00-4.606 1.826A3.058 3.058 0 00111.347 30a3.057 3.057 0 00.972 2.29.83.83 0 001.067.148 16.982 16.982 0 015.425-1.431c1.241-.148 1.601-.864 1.601-1.975zm9.273-3.382a6.62 6.62 0 00-5.127 2.345 1.745 1.745 0 00-.434 1.79c.223.69.881.567 1.378.617 1.824.211 3.619.625 5.35 1.234.31.099.608.321.981.173a4.624 4.624 0 001.825-3.42 2.332 2.332 0 00-1.912-2.332 312.01 312.01 0 00-2.036-.407h-.025zm-19.018 29.08a10.518 10.518 0 005.214 2.877 33 33 0 0018.708-1.407 7.825 7.825 0 004.257-3.407c-10.228 5.777-15.69 6.172-28.179 1.938z" fill="#000"/><path d="M131.299 70.716c-4.022 0-6.728-2.975-5.623-6.234a5.97 5.97 0 012.961-3.535 6.014 6.014 0 014.611-.378 6.391 6.391 0 012.739 1.572 6.341 6.341 0 011.643 2.687c.633 1.814-.869 4.295-3.141 5.233a10.216 10.216 0 01-3.19.655zm-.807-.988a8.732 8.732 0 004.544-1.11 3.2 3.2 0 001.189-.912 3.168 3.168 0 00.593-2.843 3.182 3.182 0 00-.727-1.307 5.952 5.952 0 00-2.559-1.921 5.99 5.99 0 00-3.189-.325 4.657 4.657 0 00-2.619 1.538 4.609 4.609 0 00-1.105 2.82 3.825 3.825 0 001.053 2.854 3.868 3.868 0 002.808 1.206h.012zM104.274 65.235c-.236 0-.633 0-1.03-.086-2.297-.272-4.22-1.691-4.593-3.382a5.464 5.464 0 01.445-3.161 5.501 5.501 0 012.137-2.382 6.057 6.057 0 016.604-.16 4.75 4.75 0 011.91 2.115c.404.883.526 1.868.349 2.822-.323 2.74-2.396 4.271-5.822 4.234zm.559-8.986a5.382 5.382 0 00-3.451 1.111 4.322 4.322 0 00-1.562 1.942 4.297 4.297 0 00-.226 2.477c.323 1.642 1.9 1.802 3.191 2.222.283.099.581.149.881.148 1.974 0 3.935-.272 5.164-2.025a3.448 3.448 0 00.236-3.703c-.881-1.641-2.446-2.123-4.221-2.172h-.012zM97.956 45.856h-1.639c-2.606-.148-3.45-1.32-3.016-3.913.26-1.58 1.44-2.666 2.01-4.073.175-.432.783-.408 1.242-.47a8.893 8.893 0 015.499.803c1.316.679 2.483 1.481 2.359 3.234a4.478 4.478 0 01-.854 2.56 4.517 4.517 0 01-2.175 1.612 8.736 8.736 0 01-3.426.247zm-3.724-2.925c-.224 1.086.41 1.666 1.527 1.95a8.148 8.148 0 006.033-.716 3.095 3.095 0 001.5-2.242 3.072 3.072 0 00-.842-2.56 6.03 6.03 0 00-5.624-.852 4.288 4.288 0 00-2.04 1.786 4.25 4.25 0 00-.554 2.646v-.012zM98.067 55.866a9.69 9.69 0 01-4.084-.95 3.718 3.718 0 01-1.274-1.13 3.691 3.691 0 01.393-4.72 9.81 9.81 0 018.528-1.543c3.339 1.468 3.724 4.937.745 7.134a8.08 8.08 0 01-4.308 1.21zm.894-7.776c-1.949.074-3.637.16-4.965 1.42a2.934 2.934 0 00-.336 4.326c.373.399.85.687 1.379.833a7.814 7.814 0 007.286-1.395c.467-.378.805-.89.967-1.468a2.88 2.88 0 00-.061-1.753 2.466 2.466 0 00-.866-1.255 2.495 2.495 0 00-1.442-.51c-.758-.149-1.502-.149-1.999-.149l.037-.049zM130.939 80.232a46.177 46.177 0 01-8.751.198 69.863 69.863 0 01-8.69-1.111c-1.775-.32-3.016-1.345-4.593-1.975-.298-.123-.683-.37-.484-.778.198-.407.621-.246.906-.074 6.008 3.568 12.761 2.654 19.278 3.197a4.002 4.002 0 012.334.543zM177.453 94.082c.484-.543 1.117-.37 1.675-.407 3.017-.223 6.033.185 9.05-.223.31 0 .646 0 .745.297.099.296-.335.518-.646.567a35.39 35.39 0 01-10.502 0c-.111.025-.26-.123-.322-.234zM132.491 79.64a47.869 47.869 0 0010.477-3.567c.211-.111.459-.26.658 0a.39.39 0 01.082.346.401.401 0 01-.231.27 19.177 19.177 0 01-10.986 2.95zM114.801 80.775l9.807 1.235a18.073 18.073 0 01-9.869-.642l.062-.593zM75.313 85.454c.075 1.16-2.482 3.382-3.575 3.172a.548.548 0 01-.53-.614.543.543 0 01.12-.275 7.615 7.615 0 012.93-2.839c.559-.308.906.062 1.055.556zM68.945 94.773c-2.358 1.469-6.753 1.481-8.54.247-.36-.247-.646-.543-.36-.963.285-.42.57 0 .831.136a6.237 6.237 0 004.407.765 12.487 12.487 0 013.662-.185zM172.86 83.454c0-.481.087-.901.583-1.086a.84.84 0 01.925.18c.078.08.139.173.18.276.373.741.745 1.482 1.093 2.235a.777.777 0 01-.274 1.037.658.658 0 01-.831 0 4.54 4.54 0 01-1.676-2.642zM147.486 93.909a35.28 35.28 0 01-7.796.26c-.298 0-.633 0-.583-.47a.511.511 0 01.534-.42 24.309 24.309 0 017.845.63zM126.458 81.886a26.206 26.206 0 016.393-.752c.26 0 .508 0 .546.358a.438.438 0 01-.229.472.436.436 0 01-.181.046c-2.165.36-4.379.318-6.529-.124zM101.792 73.48c-.124.482-.509.334-.795.186a18.352 18.352 0 01-5.338-3.703c-.236-.247-.583-.519-.186-.852.397-.333.522.173.745.37a17.384 17.384 0 004.68 3.098c.335.186.894.247.894.902zM70.137 95.168a9.834 9.834 0 015.81-.383.572.572 0 01.347.408c0 .271-.211.432-.472.456a11.32 11.32 0 01-5.685-.481zM169.334 94.057a11.322 11.322 0 016.443 0 9.098 9.098 0 01-6.443 0zM108.396 78.43c1.651 1.012 3.513 1.506 5.375 2.53a4.917 4.917 0 01-3.119-.359 4.882 4.882 0 01-2.256-2.17zM69.119 89.44c.46.1.782.396.633.926a2.17 2.17 0 01-.693 1.2 2.191 2.191 0 01-1.28.54c-.497 0-.745-.197-.72-.69.024-.494 1.44-2.025 2.06-1.975zM150.006 72.69c-.074.149-.112.322-.211.396a16.033 16.033 0 01-3.997 2.21c-.211.073-.422.098-.497-.112a.556.556 0 01.149-.506 69.289 69.289 0 013.973-2.32c.285-.136.409.147.583.333zM94.989 72.826c.223.173.447.37.683.531l3.078 2.024c.199.124.522.198.335.519a.72.72 0 01-.484.259 9.793 9.793 0 01-3.997-2.839c-.062-.247.075-.407.385-.494zM177.155 86.651c.794.062 1.49.272 1.564 1.099 0 .567-.434.827-.993.814-.559-.012-1.415-.247-1.502-1.074-.05-.605.484-.765.931-.839zM100.712 75.295a6.018 6.018 0 01-2.341-.798 5.984 5.984 0 01-1.818-1.67c-.124-.149-.236-.346-.074-.52a.472.472 0 01.67 0c1.08.89 2.16 1.754 3.563 2.988zM92.717 18.367c-.67-.16-1.886 0-1.862-.765.025-.766 1.242-.445 1.962-.334.509.075 1.427 0 1.365.704-.062.704-.918.284-1.465.395zM153.532 69.691a6.053 6.053 0 01-2.421 2.37.348.348 0 01-.352-.355.351.351 0 01.054-.176 7.293 7.293 0 012.173-2.148c.335-.259.471.136.546.31zM106.757 76.937a2.361 2.361 0 01-.633-.074 4.028 4.028 0 01-1.439-.845 3.991 3.991 0 01-.969-1.353c-.162-.456.534-.37 1.452.432.335.297.67.568.993.877.323.308.596.333.596.963zM152.179 72.69a3.631 3.631 0 01-1.285 1.711 3.663 3.663 0 01-2.03.697 7.915 7.915 0 013.315-2.407zM132.18 93.897a3.854 3.854 0 01-4.146-.753 9.368 9.368 0 014.146.752zM92.42 18.972c.509.16 1.378-.235 1.402.654 0 .642-.72.53-1.241.518-.521-.012-1.415 0-1.428-.728-.012-.728.82-.345 1.267-.444zM148.38 20.009c-.323-.062-.658-.124-.993-.21-.335-.087-.472-.247-.459-.506.012-.26.297-.358.558-.358.347-.03.696-.03 1.043 0 .484.099 1.365-.26 1.365.432 0 .691-.931.382-1.514.642zM137.369 80.467v.32c-.253.41-.628.73-1.073.916a2.325 2.325 0 01-1.41.122c-.186 0-.372-.334-.235-.457a3.81 3.81 0 012.718-.901zM95.287 72.098a4.477 4.477 0 01-2.185-1.74c-.161-.198-.46-.47-.112-.74.348-.272.46 0 .658.11a3.714 3.714 0 011.639 2.37zM110.978 83.06a1.159 1.159 0 01-1.552.123c-.447-.247-1.117-.642-.72-1.235.397-.592.72.185 1.08.346.474.111.894.382 1.192.765zM149.435 79.134c-.26 0-.521-.136-.409-.358a2.75 2.75 0 011.924-1.432c.248-.074.546.173.422.42-.41.777-1.266 1-1.937 1.37zM151.198 75.924a4.158 4.158 0 01-1.936 1.309c-.075 0-.36-.26-.348-.383 0-.506.484-.728.857-.925.372-.198.72-.568 1.241-.358.074.037.112.222.186.358zM149.547 93.872c.236-.185.298-.272.385-.296.645-.185 1.241-.618 1.936 0a.303.303 0 01.098.272.305.305 0 01-.172.234 1.82 1.82 0 01-2.247-.21zM94.58 67.815c0 .26 0 .617-.323.518a2.01 2.01 0 01-1.242-1.493c-.062-.235.1-.531.397-.408a1.838 1.838 0 011.167 1.383zM154.86 66.654c.099.136.198.223.186.284-.099.716-.199 1.445-.956 1.803-.161.074-.397-.1-.397-.309a1.82 1.82 0 011.167-1.778zM154.413 71.049a1.632 1.632 0 01-1.068 1.234c-.335.111-.459-.099-.422-.37a1.746 1.746 0 011.006-1.308c.335-.136.447.148.484.444zM97.882 81.886c-.87.321-1.453.198-1.863-.444a.529.529 0 01.162-.481c.807-.21 1.192.32 1.7.925zM42.368 33.327a7.148 7.148 0 01-.422 2.852c-.584 3.048-1.13 6.11-1.428 9.195 0 .284.087.68-.298.729-.385.05-.41-.334-.41-.617a39.198 39.198 0 011.75-11.344c.075-.346.212-.815.808-.815zM167.584 30.451a10.442 10.442 0 011.92-4.698 10.52 10.52 0 013.914-3.25c.298-.161.757-.544.993 0 .236.542-.335.64-.658.814a9.618 9.618 0 00-3.136 2.508 9.552 9.552 0 00-1.829 3.565 6.84 6.84 0 00-.261 2.036c0 .358.224.926-.335.95-.559.026-.509-.592-.546-.999-.137-.148-.062-.346-.062-.926zM128.046 20.07c-2.92.488-5.893.58-8.838.272a.564.564 0 01-.408-.163.558.558 0 01-.163-.405c0-.296.285-.407.521-.42a26.499 26.499 0 018.888.716zM173.481 21.354a.604.604 0 01-.447.53 7.865 7.865 0 00-4.283 3.395.416.416 0 01-.252.253.423.423 0 01-.356-.03c-.261-.161-.162-.395-.087-.642a7.09 7.09 0 011.859-2.442 7.133 7.133 0 012.722-1.434c.347 0 .707 0 .844.37zM204.974 35.302c0 .235 0 .445-.149.543a.524.524 0 01-.732-.296c-.323-.617-.584-1.234-.907-1.864a78.298 78.298 0 00-1.39-2.592c-.161-.296-.211-.58 0-.79.211-.21.484 0 .633.185a22.596 22.596 0 012.545 4.814zM169.533 20.65c-.906 2.247-2.384 3.765-3.128 5.962a5.439 5.439 0 01.533-3.515 5.487 5.487 0 012.595-2.447zM46.104 25.625a1.228 1.228 0 01.795-1.358c1.08-.555 2.21-1.024 3.339-1.506.248-.11.584-.259.782.087.199.345-.112.506-.298.592-1.502.728-3.016 1.432-4.618 2.185zM75.251 36.771l3.352-2.69a.361.361 0 01.522 0 .42.42 0 01.11.497.422.422 0 01-.11.144 9.686 9.686 0 01-3.55 2.395l-.324-.346zM51.79 43.338c-.51 0-.82-.309-.72-.827.071-.386.274-.736.575-.99.301-.254.681-.397 1.076-.405.546 0 .894.247.831.753-.173.975-.819 1.333-1.762 1.469zM81.769 36.66a6.097 6.097 0 01-3.563 2.333.586.586 0 01-.521-.123c-.187-.247 0-.457.223-.593a7.62 7.62 0 013.86-1.617zM107.626 20.663a4.99 4.99 0 01-4.233-.432 4.592 4.592 0 014.233.432zM110.308 20.256l3.264-.642a.48.48 0 01.368.02.472.472 0 01.241.276c.136.395-.199.506-.46.605a3.44 3.44 0 01-3.413-.26zM45.024 25.921c.312.526.582 1.074.807 1.642.199.432-.41 1.123-.931 1.061-.521-.061-1.18-.58-1.242-.95-.037-.753.72-1.185 1.366-1.753zM76.964 37.512l2.694-2.16a.46.46 0 01.658 0 .445.445 0 010 .666 4.07 4.07 0 01-3.352 1.494zM78.02 31.945c.177.068.344.16.496.271.224.223.087.445-.112.605a4.346 4.346 0 01-.682.543c-.559.321-.782 1.235-1.626 1-.236 0-.174-.333-.063-.494a5.819 5.819 0 011.987-1.925zM201.101 40.462c.372-.74-.274-2.05.794-2.074.559 0 .224 1.37.174 2.098 0 .531 0 1.506-.621 1.42-.621-.087-.049-.987-.347-1.444zM42.777 31.982c-.236-.087-.31-.099-.322-.124a3.327 3.327 0 01.57-3.011c.087-.136.447-.173.485 0a5.21 5.21 0 01-.733 3.135zM76.493 39.005c.57.84 0 1.136-.658 1.346-.236.074-.497.185-.695 0-.199-.185 0-.506.21-.692a.47.47 0 00.187-.617c-.26-.592.161-.876.608-.9.82-.063.484.468.348.863z" fill="#000"/><path d="M132.044 44.918c2.482-3.333 1.564-6.777 2.917-6.987 1.353-.21 4.059 3.481 3.575 7.012-.434 3.147-3.153 4.937-4.506 5.875-2.917 1.963-5.772 2.21-8.95 2.469-3.178.259-11.942.888-14.537-3.703a5.715 5.715 0 01-.695-2.16l3.799 1.95c1.85.459 3.754.666 5.66.617 1.775-.111 9.149-.309 12.737-5.073z" fill="#F5F7A9"/><path d="M166.342 28.71c.286-.727.112-1.727 1.105-2.06a.298.298 0 01.373.298.287.287 0 01-.063.17c-.496.729 0 1.988-1.154 2.321-.261.074-.261-.444-.261-.728zM64.662 20.725c-.67-.111-1.328 0-1.812-.519 0 0 0-.284.15-.358.583-.493 1.24-.185 1.799 0 .335.099.919.124.807.617-.112.494-.658.136-.944.26zM44.429 30.5c.484.186.41.568.26.852-.285.556.15 1.605-.77 1.642-.52 0-.334-.802-.26-1.234.074-.432.124-1.087.77-1.26zM73.489 19.577a2.757 2.757 0 012.954.814s0 .358-.1.358a3.904 3.904 0 01-2.854-1.172zM202.231 34.154c.62.26.782.84.98 1.395.112.333 0 .667-.409.556-.621-.198-.82-.803-.919-1.395a.46.46 0 01.056-.35.455.455 0 01.292-.206zM55.104 22.477c-.248.482-.695.494-1.13.47-.434-.025-.806 0-.757-.457.075-.667.67-.605 1.142-.568a.736.736 0 01.745.555zM176.758 21.885c.163-.397.466-.72.852-.912.386-.19.829-.235 1.246-.125.149 0 .347.284.174.469a2.489 2.489 0 01-2.272.568zM168.738 42.56a.926.926 0 01-1.167.346 12.954 12.954 0 00-3.426-.938c-.26 0-.521-.136-.409-.445a.57.57 0 01.434-.296 7.84 7.84 0 014.568 1.333zM169.359 41.807a15.733 15.733 0 01-4.593-1.617c1.304-.605 3.265.074 4.593 1.617zM143.266 55.94a7.137 7.137 0 01-2.632 3.123c-.211.148-.447.223-.646 0a.455.455 0 010-.654c.969-.938 1.949-1.851 2.93-2.765l.348.297zM143.042 58.57c-.235 0-.422-.223-.335-.37.398-.593.658-1.346 1.428-1.593.236-.074.422.16.409.47-.012.308-1.067 1.517-1.502 1.493zM123.925 32.87c4.395-.16 8.863 2.025 12.811 5.247 4.233 3.456 3.066 10.714-2.11 13.33a26.087 26.087 0 01-13.581 2.593 18.694 18.694 0 01-9.558-2.876 7.814 7.814 0 01-2.808-4.034 7.77 7.77 0 01.164-4.903c2.78-6.283 7.56-9.443 15.082-9.356zm0 1.16a13.711 13.711 0 00-9.769 2.47 9.688 9.688 0 00-3.57 3.799 9.626 9.626 0 00-1.073 5.088c0 2.468.832 4.826 3.364 5.801a25.438 25.438 0 0021.19-.654c5.499-2.74 5.81-9.307.745-12.75-3.228-2.26-6.753-4.37-10.874-3.753h-.013zM114.59 61.791a60.199 60.199 0 006.642 1.383 6.242 6.242 0 01-3.528.29 6.22 6.22 0 01-3.114-1.673zM115.683 63.791c0 .296-.224.457-.509.37-.609-.185-1.242-.382-1.478-1.049-.111-.32.224-.37.472-.333a2.074 2.074 0 011.515 1.012zM127.86 63.248c1.613-.174 3.205-.5 4.755-.975a.452.452 0 01.522.05.444.444 0 01.111.147c.124.284 0 .47-.286.58-.285.111-.757.26-1.092.445-.534.296-1.601-.124-1.403 1.234.075.47-.869.568-1.39.432-.521-.136-1.241-.21-.385-1.024.261-.309-.832-.1-.832-.89zM108.346 59.434a2.925 2.925 0 01-1.657-.822 2.893 2.893 0 01-.826-1.647 4.853 4.853 0 012.483 2.469z" fill="#000"/></g><defs><clipPath id="clip0"><path fill="#fff" d="M0 0h212v137H0z"/></clipPath></defs></svg>
