<svg width="151" height="233" fill="none" xmlns="http://www.w3.org/2000/svg">
  <path d="M68.714 231.341c.198-3.532.788-45.107-.391-48.237-1.18-3.13-1.18-1.57-6.083-8.039-4.904-6.47-17.27-19.038-24.531-27.678-7.263-8.639-6.48-13.147-13.148-24.547-6.667-11.4-14.326-20.607-19.627-27.28-5.3-6.673-4.904-8.635 1.378-10.403 6.281-1.769 10.006.396 14.916 3.14 4.91 2.745 11.185 9.814 16.486 17.275 5.3 7.46 10.596 10.987 12.949 11.968 2.353.98 3.929.198 3.929.198s6.28-12.756 7.455-16.685c1.174-3.928 1.967-14.326 1.768-16.078-.198-1.753-1.372-9.031-2.75-18.647-1.377-9.615-2.55-27.082-2.743-32.972-.193-5.89-1.769-19.038 1.372-23.55 3.14-4.513 9.813-3.34 11.384.193 1.57 3.532 3.333 17.467 3.751 26.889.419 9.422 6.277 40.433 7.064 41.805.788 1.372 4.122-.198 5.103-1.18.98-.98 0-3.75-.198-10.402-.199-6.651 0-21.589.396-30.223.397-8.634 2.326-22.382 3.29-26.9.966-4.518 2.75-7.847 5.897-8.436 3.146-.59 7.846 1.57 7.846 5.692 0 4.121.59 30.812.59 40.036s-.59 27.48-.392 29.044c.199 1.565 2.353 1.769 3.339 1.18.987-.59 1.764-5.302 2.144-13.346.381-8.045 4.159-22.96 4.54-36.896.38-13.935 1.57-14.723 6.276-15.114 4.706-.391 7.262 1.962 8.039 7.653.778 5.692-.589 23.749-.589 34.742 0 10.992-3.923 29.44-3.923 29.44l4.116 2.353s5.107-18.84 6.281-25.12c1.174-6.282 2.948-21.59 5.499-24.537 2.551-2.948 8.04-.98 9.224 3.537 1.185 4.518.59 9.615.193 21.39-.397 11.776-5.483 32.973-5.483 32.973s2.144 11.582-.198 31.204c-2.342 19.621-8.436 43.766-11.968 50.836-3.532 7.069-6.089 7.064-6.673 11.384-.584 4.32-.397 44.319-.397 44.319" fill="#fff"/>
  <path d="M126.459 178.071c-4.143 1.657-14.498-9.111-23.202-9.947-8.704-.836-13.254 9.947-26.927 6.217-13.672-3.73-32.313-27.773-38.53-38.943-5.044-9.111-12.82-14.616-15.543-16.374.782 1.244 1.56 2.514 2.32 3.816a88.649 88.649 0 015.767 11.936c2.048 3.377 4.288 6.893 6.63 10.146 8.286 11.598 20.715 20.715 25.684 28.17 4.968 7.456 12.863 15.742 18.222 16.16 5.36.418 9.948-3.318 18.647-6.217 8.698-2.9 20.715 3.317 24.858.412 4.143-2.905 6.217-7.037 2.074-5.376zM144.917 104.066c-.471 2.015-1.999 6.597-6.431 8.575-5.783 2.53-13.26 1.656-9.112 3.312 4.149 1.656 8.699 21.541 7.874 31.086-.584 6.732-.756 12.627-.225 14.203a276.683 276.683 0 006.876-35.416 141.672 141.672 0 001.018-21.76zM105.931 77.75c1.158 3.43 7.273 3.553 7.273 1.302 0-2.481-3.275-14.894.413-21.127 3.687-6.234 1.243-5.387 1.243-9.943 0-4.555 4.143-16.984 4.143-16.984a32.531 32.531 0 01-1.656-9.942 29.266 29.266 0 011.34-8.624c-3.033.718-3.912 3.173-4.239 14.83-.397 13.935-4.122 28.851-4.519 36.896-.396 8.045-1.173 12.756-2.143 13.345a2.73 2.73 0 01-1.855.247zM141.224 35.81a4.006 4.006 0 00-1.072.87c-2.551 2.947-4.319 18.254-5.499 24.535-.825 4.422-3.623 15.141-5.188 21.037.536 7.814 2.83 8.645 6.11 7.552 3.725-1.244 0-2.07 0-9.53 0-7.46 3.104-10.719 4.143-19.471 1.04-8.752-1.329-6.673-1.243-9.942.07-2.793 2.165-12.424 2.749-15.05zM93.315 11.939c0-6.212 4.143-9.111 4.143-9.111a4.117 4.117 0 00-1.528-1.163c-2.857.82-4.497 4.035-5.43 8.323-.98 4.518-2.942 18.255-3.333 26.89-.391 8.634-.59 23.55-.397 30.222.193 6.673 1.18 9.422.199 10.403-.537.48-1.15.87-1.812 1.153 1.11 4.652 8.576 3.296 8.576 3.296s-2.712-3.452-1.64-6.625c1.072-3.173 1.243-7.042-1.239-17.402-2.481-10.36 1.239-15.742 1.239-15.742s-.826-1.656-1.657-7.873c-.83-6.217 2.9-16.154 2.9-16.154l-.021-6.217z" fill="#92E3A9"/>
  <path d="M17.385 86.25a126.21 126.21 0 015.895 5.231c12.43 11.604 14.916 23.202 26.102 27.758 11.185 4.556 19.053-7.043 26.926-6.625 7.874.418 20.303 21.975 20.303 21.975s-2.487-12.429-4.974-18.641c-2.487-6.212-15.741-11.598-15.741-11.598s15.741 4.555 22.37 8.698a45.739 45.739 0 0013.164 5.36c-1.608-.831-22.451-14.948-28.079-17.36-5.799-2.487-14.47-4.143-15.741-9.111-1.27-4.968 1.656-10.773 1.656-10.773s-3.752-12.016-4.974-18.223c-1.222-6.206.418-9.111.418-9.111s-2.074-3.725-2.074-9.53a54.239 54.239 0 011.656-12.01s-4.968-3.318-4.143-10.773c.826-7.456 7.048-7.456 7.048-7.456 5.36 2.07 6.625 16.154 6.625 16.154l.144-3.853-.096-1.372c-.043-.402-.091-.799-.14-1.2v-.194l-.144-1.147v-.075c-.06-.418-.113-.836-.166-1.249v-.037c-.054-.375-.102-.74-.156-1.104l-.032-.236-.145-.965v-.16c-.059-.376-.118-.745-.177-1.105v-.075c-.053-.321-.107-.638-.16-.943 0-.086 0-.166-.043-.247a23.046 23.046 0 00-.14-.777c0-.07 0-.139-.037-.209a35.364 35.364 0 00-.182-.921v-.08a53.1 53.1 0 00-.161-.757l-.048-.236c-.043-.198-.091-.39-.134-.578l-.048-.21c-.065-.24-.124-.476-.183-.696v-.043c-.053-.204-.112-.391-.166-.573 0-.06-.037-.118-.053-.172-.043-.14-.086-.268-.13-.391-.042-.123-.037-.102-.053-.15a7.702 7.702 0 00-.177-.445c-1.57-3.532-8.243-4.711-11.383-.193-3.141 4.518-1.57 17.687-1.372 23.55.198 5.864 1.372 23.357 2.744 32.973 1.372 9.615 2.55 16.877 2.75 18.646.197 1.768-.59 12.166-1.77 16.079-1.179 3.912-7.589 16.668-7.589 16.668s-1.57.783-3.928-.198c-2.359-.981-7.654-4.513-12.95-11.968-5.295-7.456-11.581-14.525-16.486-17.274-1.345-.75-2.599-1.453-3.837-2.048h.01z" fill="#92E3A9"/>
  <g opacity=".5" fill="#fff">
    <path opacity=".5" d="M126.459 178.071c-4.143 1.657-14.498-9.111-23.202-9.947-8.704-.836-13.254 9.947-26.927 6.217-13.672-3.73-32.313-27.773-38.53-38.943-5.044-9.111-12.82-14.616-15.543-16.374.782 1.244 1.56 2.514 2.32 3.816a88.649 88.649 0 015.767 11.936c2.048 3.377 4.288 6.893 6.63 10.146 8.286 11.598 20.715 20.715 25.684 28.17 4.968 7.456 12.863 15.742 18.222 16.16 5.36.418 9.948-3.318 18.647-6.217 8.698-2.9 20.715 3.317 24.858.412 4.143-2.905 6.217-7.037 2.074-5.376zM144.917 104.066c-.471 2.015-1.999 6.597-6.431 8.575-5.783 2.53-13.26 1.656-9.112 3.312 4.149 1.656 8.699 21.541 7.874 31.086-.584 6.732-.756 12.627-.225 14.203a276.683 276.683 0 006.876-35.416 141.672 141.672 0 001.018-21.76zM105.931 77.75c1.158 3.43 7.273 3.553 7.273 1.302 0-2.481-3.275-14.894.413-21.127 3.687-6.234 1.243-5.387 1.243-9.943 0-4.555 4.143-16.984 4.143-16.984a32.531 32.531 0 01-1.656-9.942 29.266 29.266 0 011.34-8.624c-3.033.718-3.912 3.173-4.239 14.83-.397 13.935-4.122 28.851-4.519 36.896-.396 8.045-1.173 12.756-2.143 13.345a2.73 2.73 0 01-1.855.247zM141.224 35.81a4.006 4.006 0 00-1.072.87c-2.551 2.947-4.319 18.254-5.499 24.535-.825 4.422-3.623 15.141-5.188 21.037.536 7.814 2.83 8.645 6.11 7.552 3.725-1.244 0-2.07 0-9.53 0-7.46 3.104-10.719 4.143-19.471 1.04-8.752-1.329-6.673-1.243-9.942.07-2.793 2.165-12.424 2.749-15.05zM93.315 11.939c0-6.212 4.143-9.111 4.143-9.111a4.117 4.117 0 00-1.528-1.163c-2.857.82-4.497 4.035-5.43 8.323-.98 4.518-2.942 18.255-3.333 26.89-.391 8.634-.59 23.55-.397 30.222.193 6.673 1.18 9.422.199 10.403-.537.48-1.15.87-1.812 1.153 1.11 4.652 8.576 3.296 8.576 3.296s-2.712-3.452-1.64-6.625c1.072-3.173 1.243-7.042-1.239-17.402-2.481-10.36 1.239-15.742 1.239-15.742s-.826-1.656-1.657-7.873c-.83-6.217 2.9-16.154 2.9-16.154l-.021-6.217z"/>
    <path opacity=".5" d="M17.385 86.25a126.21 126.21 0 015.895 5.231c12.43 11.604 14.916 23.202 26.102 27.758 11.185 4.556 19.053-7.043 26.926-6.625 7.874.418 20.303 21.975 20.303 21.975s-2.487-12.429-4.974-18.641c-2.487-6.212-15.741-11.598-15.741-11.598s15.741 4.555 22.37 8.698a45.739 45.739 0 0013.164 5.36c-1.608-.831-22.451-14.948-28.079-17.36-5.799-2.487-14.47-4.143-15.741-9.111-1.27-4.968 1.656-10.773 1.656-10.773s-3.752-12.016-4.974-18.223c-1.222-6.206.418-9.111.418-9.111s-2.074-3.725-2.074-9.53a54.239 54.239 0 011.656-12.01s-4.968-3.318-4.143-10.773c.826-7.456 7.048-7.456 7.048-7.456 5.36 2.07 6.625 16.154 6.625 16.154l.144-3.853-.096-1.372c-.043-.402-.091-.799-.14-1.2v-.194l-.144-1.147v-.075c-.06-.418-.113-.836-.166-1.249v-.037c-.054-.375-.102-.74-.156-1.104l-.032-.236-.145-.965v-.16c-.059-.376-.118-.745-.177-1.105v-.075c-.053-.321-.107-.638-.16-.943 0-.086 0-.166-.043-.247a23.046 23.046 0 00-.14-.777c0-.07 0-.139-.037-.209a35.364 35.364 0 00-.182-.921v-.08a53.1 53.1 0 00-.161-.757l-.048-.236c-.043-.198-.091-.39-.134-.578l-.048-.21c-.065-.24-.124-.476-.183-.696v-.043c-.053-.204-.112-.391-.166-.573 0-.06-.037-.118-.053-.172-.043-.14-.086-.268-.13-.391-.042-.123-.037-.102-.053-.15a7.702 7.702 0 00-.177-.445c-1.57-3.532-8.243-4.711-11.383-.193-3.141 4.518-1.57 17.687-1.372 23.55.198 5.864 1.372 23.357 2.744 32.973 1.372 9.615 2.55 16.877 2.75 18.646.197 1.768-.59 12.166-1.77 16.079-1.179 3.912-7.589 16.668-7.589 16.668s-1.57.783-3.928-.198c-2.359-.981-7.654-4.513-12.95-11.968-5.295-7.456-11.581-14.525-16.486-17.274-1.345-.75-2.599-1.453-3.837-2.048h.01z"/>
  </g>
  <path d="M68.714 231.341c.198-3.532.788-45.107-.391-48.237-1.18-3.13-1.18-1.57-6.083-8.039-4.904-6.47-17.27-19.038-24.531-27.678-7.263-8.639-6.48-13.147-13.148-24.547-6.667-11.4-14.326-20.607-19.627-27.28-5.3-6.673-4.904-8.635 1.378-10.403 6.281-1.769 10.006.396 14.916 3.14 4.91 2.745 11.185 9.814 16.486 17.275 5.3 7.46 10.596 10.987 12.949 11.968 2.353.98 3.929.198 3.929.198s6.28-12.756 7.455-16.685c1.174-3.928 1.967-14.326 1.768-16.078-.198-1.753-1.372-9.031-2.75-18.647-1.377-9.615-2.55-27.082-2.743-32.972-.193-5.89-1.769-19.038 1.372-23.55 3.14-4.513 9.813-3.34 11.384.193 1.57 3.532 3.333 17.467 3.751 26.889.419 9.422 6.277 40.433 7.064 41.805.788 1.372 4.122-.198 5.103-1.18.98-.98 0-3.75-.198-10.402-.199-6.651 0-21.589.396-30.223.397-8.634 2.326-22.382 3.29-26.9.966-4.518 2.75-7.847 5.897-8.436 3.146-.59 7.846 1.57 7.846 5.692 0 4.121.59 30.812.59 40.036s-.59 27.48-.392 29.044c.199 1.565 2.353 1.769 3.339 1.18.987-.59 1.764-5.302 2.144-13.346.381-8.045 4.159-22.96 4.54-36.896.38-13.935 1.57-14.723 6.276-15.114 4.706-.391 7.262 1.962 8.039 7.653.778 5.692-.589 23.749-.589 34.742 0 10.992-3.923 29.44-3.923 29.44l4.116 2.353s5.107-18.84 6.281-25.12c1.174-6.282 2.948-21.59 5.499-24.537 2.551-2.948 8.04-.98 9.224 3.537 1.185 4.518.59 9.615.193 21.39-.396 11.776-5.483 32.973-5.483 32.973s2.144 11.582-.198 31.204c-2.342 19.621-8.436 43.767-11.968 50.836-3.532 7.069-6.089 7.064-6.673 11.384-.584 4.32-.397 44.318-.397 44.318" stroke="#263238" stroke-linecap="round" stroke-linejoin="round"/>
  <path d="M111.452 118.37l.091.043c.043 0 .005-.016-.091-.043z" fill="#263238" stroke="#92E3A9" stroke-miterlimit="10"/>
  <path d="M132.692 115.144c-7.15-.927-17.832-2.728-25.507-5.847-12.563-5.103-17.686-11.379-17.686-11.379M140.329 115.969s-1.125-.085-3.017-.278M80.302 184.482c2.997.657 6.095.704 9.111.139 7.504-1.608 15.007-4.824 18.759-2.68 3.752 2.144 8.039 4.824 10.183 4.824M73.87 182.477c1.026.453 2.078.843 3.152 1.168M99.816 78.79c7.225.423 16.872 1.457 20.683 3.998M91.021 78.5s1.442 0 3.704.07M112.54 132.815a162.67 162.67 0 002.101 2.39M63.612 102.431s18.448.589 26.89 7.262c6.21 4.91 14.234 14.075 19.599 20.297" stroke="#263238" stroke-linecap="round" stroke-linejoin="round"/>
  <path d="M79.117 106.745s10.993 11.384 15.897 25.319a77.73 77.73 0 012.975 10.591M115.573 53.642a8.321 8.321 0 00-2.304.702M126.614 55.915s-4.105-2.101-8.382-2.375M128.002 33.736s-6.083-3.923-11.185-1.57M101.885 20.782s-5.895-2.55-10.596-.193M102.475 45.12s-10.403-1.57-13.935.59M71.855 31.577s-7.847-.778-11.384 2.55M70.9 53.144c-2.936.246-6.49.825-8.27 2.181M75.585 52.972s-1.018 0-2.503.038M147.833 55.523s-5.692-3.532-9.422-1.372M138.679 69.598a5.764 5.764 0 00-2.642.252M147.833 73.382a31.398 31.398 0 00-5.976-3.012M32.998 102.431s-6.673 5.295-11.384 6.083M138.781 92.617s-5.296-1.377-7.064-2.942c-1.769-1.565-2.75-2.557-2.75-2.557M76.764 79.862s-8.634 1.961-10.6 4.121M54.575 117.738s2.75-1.372 6.871-5.301c4.122-3.928 5.296-4.904 5.296-4.904M55.567 117.936s4.513-1.768 11.384-4.711c6.87-2.942 8.04-3.532 8.04-3.532" stroke="#263238" stroke-linecap="round" stroke-linejoin="round"/>
</svg>
